<svg version="1.1" id="Layer_1" xmlns="http://www.w3.org/2000/svg" xmlns:xlink="http://www.w3.org/1999/xlink" x="0px" y="0px"
	 width="100%" viewBox="0 0 2565 1838" enable-background="new 0 0 2565 1838" xml:space="preserve">
<path fill="none" opacity="0" stroke="none" 
	d="
M1204.000000,1840.000000 
	C803.458801,1840.000000 402.917603,1840.000000 2.000000,1840.000000 
	C2.000000,1348.613037 2.000000,857.225891 2.556542,364.168091 
	C5.318513,366.308746 7.531270,370.115875 9.728110,373.932159 
	C19.996939,391.770660 35.198490,401.485291 55.987129,401.658325 
	C77.185646,401.834747 92.790924,392.122955 103.256111,373.972748 
	C105.689445,369.752502 107.378571,365.103180 109.544868,360.356018 
	C113.385208,360.356018 117.029716,360.356018 120.674225,360.356018 
	C191.000336,360.355957 261.326447,360.361328 331.652557,360.340332 
	C335.310059,360.339233 338.976532,359.892365 342.622955,360.041382 
	C348.764404,360.292358 353.282806,357.749451 357.391418,353.293335 
	C372.719452,336.668793 388.218292,320.200348 403.760071,303.774567 
	C434.171570,271.633331 465.244965,240.088531 494.755157,207.142120 
	C503.806580,197.036743 512.600159,193.112839 525.515137,194.058929 
	C531.716431,194.513214 535.945923,196.284653 540.193115,200.583908 
	C566.192749,226.902618 592.391846,253.024979 618.642883,279.093445 
	C621.183044,281.615936 624.531982,283.323853 627.539185,285.433533 
	C598.429504,316.002625 573.083679,346.297821 549.691528,378.252106 
	C489.278290,460.778229 443.894470,550.790527 413.317352,648.435913 
	C389.180908,725.513550 376.170929,804.451172 372.573151,884.927856 
	C371.342316,912.459351 373.132629,940.129456 373.646881,967.734253 
	C374.271820,1001.284668 378.568512,1034.463501 383.651764,1067.582275 
	C390.867126,1114.592163 402.168335,1160.616211 416.782196,1205.820312 
	C435.131561,1262.579224 459.173370,1316.880371 488.147797,1369.026001 
	C527.454895,1439.767334 575.436829,1504.122925 631.831665,1562.030029 
	C653.374023,1584.150024 676.421143,1604.918091 699.839600,1625.073975 
	C749.148560,1667.513794 803.061035,1703.418335 860.485596,1733.936157 
	C912.541504,1761.600830 966.750610,1784.277466 1023.215393,1801.298462 
	C1070.281982,1815.486206 1118.091431,1826.474121 1166.974609,1832.357300 
	C1178.810181,1833.781738 1190.667969,1835.021729 1202.504517,1836.438721 
	C1204.711670,1836.702881 1206.664917,1837.489868 1204.000000,1840.000000 
z"/>
<path fill="none" opacity="0" stroke="none" 
	d="
M1366.000000,2.000000 
	C1766.541138,2.000000 2167.082275,2.000000 2568.000000,2.000000 
	C2568.000000,492.720306 2568.000000,983.440735 2567.504883,1475.853394 
	C2565.416748,1475.686279 2563.500244,1474.016724 2562.281738,1471.938110 
	C2551.225098,1453.077393 2535.127686,1443.202759 2512.990967,1444.349609 
	C2492.986816,1445.385986 2478.726807,1455.543457 2469.382812,1472.916138 
	C2467.078613,1477.199707 2465.322021,1481.777710 2463.272217,1486.311768 
	C2459.514404,1486.311768 2456.194824,1486.311768 2452.875244,1486.311768 
	C2382.887695,1486.312012 2312.900391,1486.280151 2242.912842,1486.370361 
	C2236.976562,1486.378052 2230.938477,1486.682373 2225.143066,1487.832886 
	C2221.512695,1488.553589 2217.539307,1490.403442 2214.946289,1492.980591 
	C2205.518066,1502.349609 2196.627441,1512.257935 2187.496094,1521.926880 
	C2175.390869,1534.744629 2163.204346,1547.485718 2151.134033,1560.336426 
	C2126.092041,1586.997437 2100.684326,1613.334229 2076.324463,1640.605835 
	C2067.970703,1649.958374 2059.250000,1653.637817 2047.123657,1652.556641 
	C2041.492065,1652.054565 2037.283813,1650.922729 2033.191895,1646.774292 
	C2007.683594,1620.913086 1981.893433,1595.330200 1956.227173,1569.624512 
	C1954.213257,1567.607544 1952.429932,1565.360352 1950.372925,1563.031372 
	C1956.613525,1556.494019 1962.506226,1550.618042 1968.069092,1544.444824 
	C2001.928833,1506.870850 2033.194336,1467.312866 2060.937256,1424.939819 
	C2103.400879,1360.083130 2137.202148,1291.056152 2162.177734,1217.708862 
	C2189.930420,1136.206055 2206.203613,1052.464966 2209.591309,966.397156 
	C2211.016846,930.177795 2211.911865,893.885681 2208.343018,857.700928 
	C2205.807617,831.995972 2203.668213,806.222534 2200.091309,780.656067 
	C2193.274170,731.928894 2181.442627,684.297058 2166.290527,637.502319 
	C2139.916260,556.050415 2102.784180,479.742432 2054.936035,408.819763 
	C2010.679443,343.220428 1959.002441,284.039642 1899.428711,231.704071 
	C1827.665039,168.659790 1748.272949,117.760628 1660.908569,79.307671 
	C1574.942871,41.470310 1485.273438,17.333202 1391.785278,7.655999 
	C1384.207397,6.871597 1376.602783,6.345407 1369.022583,5.580937 
	C1367.074219,5.384440 1363.920532,5.780972 1366.000000,2.000000 
z"/>
<path fill="none" opacity="0" stroke="none" 
	d="
M2.000000,330.000000 
	C2.000000,220.727982 2.000000,111.455963 2.000000,2.000000 
	C406.045227,2.000000 810.090515,2.000000 1215.769287,2.724238 
	C1216.092163,4.172345 1214.818604,5.448579 1213.465332,5.539640 
	C1175.362549,8.103459 1137.770752,14.144373 1100.436523,21.962711 
	C1013.031982,40.266495 930.262878,71.121391 851.872253,113.818855 
	C803.285461,140.282867 757.174805,170.505493 714.600708,205.869751 
	C690.089783,226.229782 666.360046,247.530258 641.729675,268.883423 
	C639.831909,267.056091 637.182251,264.585022 634.620544,262.025909 
	C607.270996,234.704422 579.725830,207.573349 552.741211,179.895844 
	C545.862000,172.840042 538.577148,170.165588 528.982971,170.190460 
	C446.001038,170.405655 363.018280,170.314377 280.035797,170.314423 
	C276.411560,170.314423 272.787323,170.314438 269.483093,170.314438 
	C253.982346,133.984375 225.945007,128.531143 205.138855,133.698837 
	C179.542068,140.056412 164.492752,161.914490 165.686157,190.834366 
	C166.566315,212.163467 183.932816,233.974274 207.705490,237.810226 
	C232.829865,241.864288 258.688934,233.457153 271.038879,194.932312 
	C293.383728,192.901382 465.456390,193.850189 472.694885,196.258865 
	C428.565796,243.116562 384.635223,289.763428 341.130951,335.957642 
	C263.248535,335.957642 185.989594,335.957642 109.157852,335.957642 
	C107.279800,331.769501 105.738274,328.111969 104.021637,324.538605 
	C90.989777,297.411316 57.558170,288.209442 32.587883,300.882538 
	C22.159901,306.174957 14.302746,313.894562 9.004442,324.329285 
	C7.576334,327.141876 6.973034,331.391632 2.000000,330.000000 
z"/>
<path fill="none" opacity="0" stroke="none" 
	d="
M2568.000000,1518.000000 
	C2568.000000,1625.271973 2568.000000,1732.543823 2568.000000,1840.000000 
	C2171.954834,1840.000000 1775.909546,1840.000000 1378.316528,1839.262085 
	C1378.490723,1837.802124 1380.170288,1836.581421 1381.940796,1836.431152 
	C1418.982178,1833.287476 1455.593506,1827.255981 1491.819092,1819.141602 
	C1555.500244,1804.877197 1617.002441,1784.130371 1676.304688,1756.699829 
	C1751.277344,1722.021118 1820.371216,1678.225342 1883.461914,1624.979980 
	C1900.408203,1610.677979 1916.716553,1595.620239 1935.370117,1579.090820 
	C1937.440308,1582.105469 1939.122070,1585.546387 1941.676636,1588.121460 
	C1967.255615,1613.903564 1993.311157,1639.223389 2018.464233,1665.411499 
	C2026.364258,1673.636475 2034.653320,1676.546753 2045.666504,1676.508545 
	C2127.632324,1676.223999 2209.599365,1676.353638 2291.566162,1676.353271 
	C2295.209717,1676.353271 2298.853516,1676.353149 2302.226318,1676.353149 
	C2318.671631,1707.431641 2341.166016,1719.415283 2369.010742,1711.854126 
	C2389.932373,1706.172974 2410.226074,1685.725342 2407.772949,1655.098877 
	C2406.059082,1633.700562 2386.649658,1612.519287 2363.434326,1608.750977 
	C2351.049805,1606.740845 2339.059570,1608.775513 2327.877197,1615.223877 
	C2313.476074,1623.528320 2305.568848,1636.412964 2301.227051,1651.735352 
	C2233.637451,1651.735352 2166.560791,1651.735352 2098.143799,1651.735352 
	C2110.331787,1638.714600 2121.573242,1626.634277 2132.893799,1614.628906 
	C2146.584961,1600.109619 2160.393066,1585.700317 2174.061279,1571.159790 
	C2192.046875,1552.026489 2209.947266,1532.813354 2227.879395,1513.630127 
	C2229.937500,1511.428589 2231.886719,1510.021240 2235.463867,1510.033325 
	C2309.763672,1510.284912 2384.064697,1510.293701 2458.365234,1510.366577 
	C2460.293945,1510.368530 2462.222656,1510.555298 2463.903564,1510.642944 
	C2466.275879,1515.696899 2468.091797,1520.323730 2470.516357,1524.606079 
	C2484.591064,1549.465576 2516.720459,1557.740967 2540.606934,1544.570190 
	C2550.568604,1539.077393 2558.121094,1531.604980 2563.198486,1521.441162 
	C2564.033936,1519.769409 2563.877686,1515.542358 2568.000000,1518.000000 
z"/>
<path fill="#F9F9F9" opacity="1.000000" stroke="none" 
	d="
M2568.000000,1517.062988 
	C2563.877686,1515.542358 2564.033936,1519.769409 2563.198486,1521.441162 
	C2558.121094,1531.604980 2550.568604,1539.077393 2540.606934,1544.570190 
	C2516.720459,1557.740967 2484.591064,1549.465576 2470.516357,1524.606079 
	C2468.091797,1520.323730 2466.275879,1515.696899 2463.903564,1510.642944 
	C2462.222656,1510.555298 2460.293945,1510.368530 2458.365234,1510.366577 
	C2384.064697,1510.293701 2309.763672,1510.284912 2235.463867,1510.033325 
	C2231.886719,1510.021240 2229.937500,1511.428589 2227.879395,1513.630127 
	C2209.947266,1532.813354 2192.046875,1552.026489 2174.061279,1571.159790 
	C2160.393066,1585.700317 2146.584961,1600.109619 2132.893799,1614.628906 
	C2121.573242,1626.634277 2110.331787,1638.714600 2098.143799,1651.735352 
	C2166.560791,1651.735352 2233.637451,1651.735352 2301.227051,1651.735352 
	C2305.568848,1636.412964 2313.476074,1623.528320 2327.877197,1615.223877 
	C2339.059570,1608.775513 2351.049805,1606.740845 2363.434326,1608.750977 
	C2386.649658,1612.519287 2406.059082,1633.700562 2407.772949,1655.098877 
	C2410.226074,1685.725342 2389.932373,1706.172974 2369.010742,1711.854126 
	C2341.166016,1719.415283 2318.671631,1707.431641 2302.226318,1676.353149 
	C2298.853516,1676.353149 2295.209717,1676.353271 2291.566162,1676.353271 
	C2209.599365,1676.353638 2127.632324,1676.223999 2045.666504,1676.508545 
	C2034.653320,1676.546753 2026.364258,1673.636475 2018.464233,1665.411499 
	C1993.311157,1639.223389 1967.255615,1613.903564 1941.676636,1588.121460 
	C1939.122070,1585.546387 1937.440308,1582.105469 1935.370117,1579.090820 
	C1916.716553,1595.620239 1900.408203,1610.677979 1883.461914,1624.979980 
	C1820.371216,1678.225342 1751.277344,1722.021118 1676.304688,1756.699829 
	C1617.002441,1784.130371 1555.500244,1804.877197 1491.819092,1819.141602 
	C1455.593506,1827.255981 1418.982178,1833.287476 1381.940796,1836.431152 
	C1380.170288,1836.581421 1378.490723,1837.802124 1377.384399,1839.262085 
	C1320.624878,1840.000000 1263.249756,1840.000000 1204.937256,1840.000000 
	C1206.664917,1837.489868 1204.711670,1836.702881 1202.504517,1836.438721 
	C1190.667969,1835.021729 1178.810181,1833.781738 1166.974609,1832.357300 
	C1118.091431,1826.474121 1070.281982,1815.486206 1023.215393,1801.298462 
	C966.750610,1784.277466 912.541504,1761.600830 860.485596,1733.936157 
	C803.061035,1703.418335 749.148560,1667.513794 699.839600,1625.073975 
	C676.421143,1604.918091 653.374023,1584.150024 631.831665,1562.030029 
	C575.436829,1504.122925 527.454895,1439.767334 488.147797,1369.026001 
	C459.173370,1316.880371 435.131561,1262.579224 416.782196,1205.820312 
	C402.168335,1160.616211 390.867126,1114.592163 383.651764,1067.582275 
	C378.568512,1034.463501 374.271820,1001.284668 373.646881,967.734253 
	C373.132629,940.129456 371.342316,912.459351 372.573151,884.927856 
	C376.170929,804.451172 389.180908,725.513550 413.317352,648.435913 
	C443.894470,550.790527 489.278290,460.778229 549.691528,378.252106 
	C573.083679,346.297821 598.429504,316.002625 627.539185,285.433533 
	C624.531982,283.323853 621.183044,281.615936 618.642883,279.093445 
	C592.391846,253.024979 566.192749,226.902618 540.193115,200.583908 
	C535.945923,196.284653 531.716431,194.513214 525.515137,194.058929 
	C512.600159,193.112839 503.806580,197.036743 494.755157,207.142120 
	C465.244965,240.088531 434.171570,271.633331 403.760071,303.774567 
	C388.218292,320.200348 372.719452,336.668793 357.391418,353.293335 
	C353.282806,357.749451 348.764404,360.292358 342.622955,360.041382 
	C338.976532,359.892365 335.310059,360.339233 331.652557,360.340332 
	C261.326447,360.361328 191.000336,360.355957 120.674225,360.356018 
	C117.029716,360.356018 113.385208,360.356018 109.544868,360.356018 
	C107.378571,365.103180 105.689445,369.752502 103.256111,373.972748 
	C92.790924,392.122955 77.185646,401.834747 55.987129,401.658325 
	C35.198490,401.485291 19.996939,391.770660 9.728110,373.932159 
	C7.531270,370.115875 5.318513,366.308746 2.556542,363.248718 
	C2.000000,353.290131 2.000000,342.580292 2.000000,330.935211 
	C6.973034,331.391632 7.576334,327.141876 9.004442,324.329285 
	C14.302746,313.894562 22.159901,306.174957 32.587883,300.882538 
	C57.558170,288.209442 90.989777,297.411316 104.021637,324.538605 
	C105.738274,328.111969 107.279800,331.769501 109.157852,335.957642 
	C185.989594,335.957642 263.248535,335.957642 341.130951,335.957642 
	C384.635223,289.763428 428.565796,243.116562 472.694885,196.258865 
	C465.456390,193.850189 293.383728,192.901382 271.038879,194.932312 
	C258.688934,233.457153 232.829865,241.864288 207.705490,237.810226 
	C183.932816,233.974274 166.566315,212.163467 165.686157,190.834366 
	C164.492752,161.914490 179.542068,140.056412 205.138855,133.698837 
	C225.945007,128.531143 253.982346,133.984375 269.483093,170.314438 
	C272.787323,170.314438 276.411560,170.314423 280.035797,170.314423 
	C363.018280,170.314377 446.001038,170.405655 528.982971,170.190460 
	C538.577148,170.165588 545.862000,172.840042 552.741211,179.895844 
	C579.725830,207.573349 607.270996,234.704422 634.620544,262.025909 
	C637.182251,264.585022 639.831909,267.056091 641.729675,268.883423 
	C666.360046,247.530258 690.089783,226.229782 714.600708,205.869751 
	C757.174805,170.505493 803.285461,140.282867 851.872253,113.818855 
	C930.262878,71.121391 1013.031982,40.266495 1100.436523,21.962711 
	C1137.770752,14.144373 1175.362549,8.103459 1213.465332,5.539640 
	C1214.818604,5.448579 1216.092163,4.172345 1216.701416,2.724238 
	C1265.375122,2.000000 1314.750244,2.000000 1365.062744,2.000000 
	C1363.920532,5.780972 1367.074219,5.384440 1369.022583,5.580937 
	C1376.602783,6.345407 1384.207397,6.871597 1391.785278,7.655999 
	C1485.273438,17.333202 1574.942871,41.470310 1660.908569,79.307671 
	C1748.272949,117.760628 1827.665039,168.659790 1899.428711,231.704071 
	C1959.002441,284.039642 2010.679443,343.220428 2054.936035,408.819763 
	C2102.784180,479.742432 2139.916260,556.050415 2166.290527,637.502319 
	C2181.442627,684.297058 2193.274170,731.928894 2200.091309,780.656067 
	C2203.668213,806.222534 2205.807617,831.995972 2208.343018,857.700928 
	C2211.911865,893.885681 2211.016846,930.177795 2209.591309,966.397156 
	C2206.203613,1052.464966 2189.930420,1136.206055 2162.177734,1217.708862 
	C2137.202148,1291.056152 2103.400879,1360.083130 2060.937256,1424.939819 
	C2033.194336,1467.312866 2001.928833,1506.870850 1968.069092,1544.444824 
	C1962.506226,1550.618042 1956.613525,1556.494019 1950.372925,1563.031372 
	C1952.429932,1565.360352 1954.213257,1567.607544 1956.227173,1569.624512 
	C1981.893433,1595.330200 2007.683594,1620.913086 2033.191895,1646.774292 
	C2037.283813,1650.922729 2041.492065,1652.054565 2047.123657,1652.556641 
	C2059.250000,1653.637817 2067.970703,1649.958374 2076.324463,1640.605835 
	C2100.684326,1613.334229 2126.092041,1586.997437 2151.134033,1560.336426 
	C2163.204346,1547.485718 2175.390869,1534.744629 2187.496094,1521.926880 
	C2196.627441,1512.257935 2205.518066,1502.349609 2214.946289,1492.980591 
	C2217.539307,1490.403442 2221.512695,1488.553589 2225.143066,1487.832886 
	C2230.938477,1486.682373 2236.976562,1486.378052 2242.912842,1486.370361 
	C2312.900391,1486.280151 2382.887695,1486.312012 2452.875244,1486.311768 
	C2456.194824,1486.311768 2459.514404,1486.311768 2463.272217,1486.311768 
	C2465.322021,1481.777710 2467.078613,1477.199707 2469.382812,1472.916138 
	C2478.726807,1455.543457 2492.986816,1445.385986 2512.990967,1444.349609 
	C2535.127686,1443.202759 2551.225098,1453.077393 2562.281738,1471.938110 
	C2563.500244,1474.016724 2565.416748,1475.686279 2567.504883,1476.772827 
	C2568.000000,1489.375244 2568.000000,1502.750610 2568.000000,1517.062988 
M404.309387,799.368530 
	C401.657776,828.396118 397.633759,857.378357 396.672791,886.461792 
	C395.191620,931.288391 396.325348,976.127258 401.525696,1020.825317 
	C405.592560,1055.780762 411.200928,1090.429932 419.179688,1124.661987 
	C437.757080,1204.366455 466.610413,1280.176880 506.153412,1351.896851 
	C551.784180,1434.658203 608.720642,1508.577759 677.690247,1573.290161 
	C704.642090,1598.578613 732.860474,1622.241455 762.630310,1644.096558 
	C835.512634,1697.602051 914.701965,1739.039429 1000.207092,1768.446655 
	C1080.077271,1795.916260 1162.142456,1812.106567 1246.542114,1815.543335 
	C1291.059204,1817.356079 1335.574829,1817.172729 1380.035400,1812.507202 
	C1415.029907,1808.834961 1449.685425,1803.557617 1484.055054,1796.093994 
	C1581.039429,1775.033447 1671.836548,1738.473999 1756.514526,1686.870605 
	C1834.583618,1639.294312 1903.880249,1581.211792 1964.251831,1512.409424 
	C2014.754150,1454.854492 2057.276123,1391.990967 2091.796875,1323.732544 
	C2115.079102,1277.696533 2134.050537,1229.876587 2148.970215,1180.464600 
	C2170.746826,1108.343018 2183.550293,1034.611450 2186.014160,959.375916 
	C2187.394775,917.218262 2186.998779,874.985352 2182.572510,832.825256 
	C2178.444336,793.506653 2172.487793,754.543396 2163.380371,716.155151 
	C2142.775635,629.303772 2110.220215,547.150696 2064.910889,470.093811 
	C2015.793701,386.560760 1955.207153,312.626099 1882.280762,248.715973 
	C1819.115845,193.360413 1749.816406,147.542801 1673.856812,111.676941 
	C1629.605713,90.782913 1584.013062,73.612938 1536.993164,60.123283 
	C1497.077148,48.671707 1456.516724,40.230053 1415.430298,34.456825 
	C1383.248779,29.934864 1350.859619,26.964157 1318.361206,26.504698 
	C1293.432983,26.152264 1268.484497,27.226313 1243.545166,27.678276 
	C1212.976196,28.232264 1182.654053,31.885853 1152.554443,36.652332 
	C1097.395020,45.387177 1043.404663,58.975506 990.734070,77.829300 
	C925.668579,101.119934 864.024597,131.288605 806.090820,168.869080 
	C736.234802,214.183273 673.640198,267.959167 618.671570,330.659943 
	C567.975647,388.487030 525.341309,451.661774 490.682983,520.232910 
	C472.982697,555.252686 457.828644,591.404602 445.048981,628.504944 
	C434.123108,660.223511 424.431854,692.337585 417.810577,725.261597 
	C412.977142,749.295654 408.824738,773.466675 404.309387,799.368530 
M85.196022,340.744202 
	C84.709061,339.508728 84.311012,338.228973 83.721596,337.044495 
	C76.531105,322.594116 63.303955,316.301697 48.133293,320.082123 
	C35.550518,323.217682 27.547184,335.394653 27.615038,350.567474 
	C27.665724,361.901031 33.703438,369.314484 42.880718,374.451782 
	C52.286892,379.717255 62.088726,379.321350 71.303490,373.851257 
	C83.260315,366.753418 87.139328,355.705200 85.196022,340.744202 
M2383.638672,1665.922119 
	C2386.745361,1646.895020 2371.033691,1630.212646 2350.654785,1632.222656 
	C2337.166260,1633.553101 2325.560303,1648.386597 2325.230225,1659.735474 
	C2324.736084,1676.722900 2339.284668,1688.646729 2350.151855,1689.694092 
	C2365.958984,1691.217163 2378.469482,1683.420288 2383.638672,1665.922119 
M223.725601,156.456711 
	C221.727509,156.416916 219.728546,156.402145 217.731445,156.333389 
	C200.947601,155.755630 183.911270,171.858246 190.807526,195.651367 
	C193.827637,206.071213 204.333069,213.767700 214.464142,214.326126 
	C229.116318,215.133789 239.007370,209.587173 244.389374,197.544891 
	C248.988907,187.253372 247.168488,173.611328 239.225418,166.017288 
	C235.269089,162.234802 229.981064,159.845230 223.725601,156.456711 
M2543.729492,1488.547363 
	C2541.323975,1481.291016 2536.740723,1475.676880 2530.179932,1471.948975 
	C2520.793213,1466.615356 2511.002930,1466.464966 2501.751953,1472.019897 
	C2491.920898,1477.923462 2487.541504,1486.617676 2487.354248,1498.579956 
	C2487.185547,1509.333740 2495.895020,1521.826294 2505.491211,1524.767700 
	C2516.582520,1528.167603 2526.883301,1527.209839 2536.004150,1518.693970 
	C2544.648193,1510.623413 2544.973633,1500.697632 2543.729492,1488.547363 
z"/>
<path fill="#none" opacity="0" stroke="none" 
	d="
M404.339050,798.472534 
	C408.824738,773.466675 412.977142,749.295654 417.810577,725.261597 
	C424.431854,692.337585 434.123108,660.223511 445.048981,628.504944 
	C457.828644,591.404602 472.982697,555.252686 490.682983,520.232910 
	C525.341309,451.661774 567.975647,388.487030 618.671570,330.659943 
	C673.640198,267.959167 736.234802,214.183273 806.090820,168.869080 
	C864.024597,131.288605 925.668579,101.119934 990.734070,77.829300 
	C1043.404663,58.975506 1097.395020,45.387177 1152.554443,36.652332 
	C1182.654053,31.885853 1212.976196,28.232264 1243.545166,27.678276 
	C1268.484497,27.226313 1293.432983,26.152264 1318.361206,26.504698 
	C1350.859619,26.964157 1383.248779,29.934864 1415.430298,34.456825 
	C1456.516724,40.230053 1497.077148,48.671707 1536.993164,60.123283 
	C1584.013062,73.612938 1629.605713,90.782913 1673.856812,111.676941 
	C1749.816406,147.542801 1819.115845,193.360413 1882.280762,248.715973 
	C1955.207153,312.626099 2015.793701,386.560760 2064.910889,470.093811 
	C2110.220215,547.150696 2142.775635,629.303772 2163.380371,716.155151 
	C2172.487793,754.543396 2178.444336,793.506653 2182.572510,832.825256 
	C2186.998779,874.985352 2187.394775,917.218262 2186.014160,959.375916 
	C2183.550293,1034.611450 2170.746826,1108.343018 2148.970215,1180.464600 
	C2134.050537,1229.876587 2115.079102,1277.696533 2091.796875,1323.732544 
	C2057.276123,1391.990967 2014.754150,1454.854492 1964.251831,1512.409424 
	C1903.880249,1581.211792 1834.583618,1639.294312 1756.514526,1686.870605 
	C1671.836548,1738.473999 1581.039429,1775.033447 1484.055054,1796.093994 
	C1449.685425,1803.557617 1415.029907,1808.834961 1380.035400,1812.507202 
	C1335.574829,1817.172729 1291.059204,1817.356079 1246.542114,1815.543335 
	C1162.142456,1812.106567 1080.077271,1795.916260 1000.207092,1768.446655 
	C914.701965,1739.039429 835.512634,1697.602051 762.630310,1644.096558 
	C732.860474,1622.241455 704.642090,1598.578613 677.690247,1573.290161 
	C608.720642,1508.577759 551.784180,1434.658203 506.153412,1351.896851 
	C466.610413,1280.176880 437.757080,1204.366455 419.179688,1124.661987 
	C411.200928,1090.429932 405.592560,1055.780762 401.525696,1020.825317 
	C396.325348,976.127258 395.191620,931.288391 396.672791,886.461792 
	C397.633759,857.378357 401.657776,828.396118 404.339050,798.472534 
M1233.138306,1747.888428 
	C1241.730469,1748.479858 1250.321045,1749.552856 1258.914917,1749.578857 
	C1294.805908,1749.687866 1330.743164,1750.730713 1366.491455,1746.307129 
	C1390.480225,1743.338501 1414.585083,1740.969604 1438.379272,1736.841064 
	C1482.254883,1729.228027 1525.134521,1717.589111 1567.168335,1702.738647 
	C1639.408325,1677.217041 1706.822144,1642.405029 1769.260376,1598.097290 
	C1812.443970,1567.453003 1852.403809,1533.037964 1889.043091,1494.674927 
	C1913.661011,1468.898682 1936.565186,1441.778809 1957.918213,1413.313354 
	C1990.960205,1369.265381 2019.110718,1322.181030 2041.883423,1272.111450 
	C2055.061035,1243.138062 2066.930420,1213.457764 2077.464355,1183.420898 
	C2092.193604,1141.420410 2102.270752,1098.082642 2109.445068,1054.129150 
	C2114.841553,1021.066772 2118.488525,987.740540 2119.414307,954.302124 
	C2120.416260,918.109070 2120.783447,881.813843 2116.320068,845.730225 
	C2113.352783,821.739136 2111.072998,797.617859 2106.918457,773.828552 
	C2099.258057,729.967102 2087.691406,687.061707 2072.822754,645.036255 
	C2047.159424,572.501099 2012.225220,504.798004 1967.623779,442.131775 
	C1937.106323,399.253967 1902.911621,359.565094 1864.837524,323.115479 
	C1839.088013,298.464783 1811.946289,275.584839 1783.494873,254.216812 
	C1739.464600,221.148666 1692.369995,193.006210 1642.313354,170.203934 
	C1613.347534,157.009186 1583.705444,145.009903 1553.626099,134.618958 
	C1512.524414,120.420357 1470.255737,110.374153 1427.231445,103.294884 
	C1393.486328,97.742416 1359.578613,94.023720 1325.520020,92.642128 
	C1298.977661,91.565437 1272.324097,93.207527 1245.720459,93.671173 
	C1218.148193,94.151688 1190.883057,97.788055 1163.665039,101.819122 
	C1116.938110,108.739525 1071.232056,120.049179 1026.497559,135.061478 
	C970.236572,153.941895 916.660950,178.821167 865.754822,209.350418 
	C802.403442,247.343353 745.168396,292.957092 693.997253,346.317566 
	C671.868164,369.393494 651.134460,393.558990 631.603455,418.818024 
	C597.301758,463.179657 568.511536,510.907776 544.026245,561.316772 
	C520.146973,610.478333 501.602631,661.573792 488.019318,714.470520 
	C479.766418,746.609436 473.620972,779.142700 469.289948,812.084717 
	C465.655548,839.727905 463.048889,867.428162 462.487518,895.245361 
	C461.803711,929.130310 461.518890,963.072510 465.694550,996.820679 
	C468.662415,1020.807007 471.165588,1044.888916 475.264313,1068.689087 
	C482.823456,1112.582764 494.521667,1155.440430 509.384705,1197.474731 
	C534.926575,1269.709961 569.777893,1337.086914 614.101379,1399.517822 
	C644.760010,1442.701172 679.206360,1482.625732 717.558594,1519.270264 
	C743.088257,1543.663452 769.964722,1566.346069 798.139160,1587.526489 
	C842.154053,1620.615234 889.234070,1648.791992 939.279419,1671.612671 
	C968.539490,1684.955078 998.554016,1696.889893 1028.902954,1707.537476 
	C1070.586426,1722.161743 1113.529053,1732.588257 1157.254028,1739.118408 
	C1181.799561,1742.784302 1206.578003,1744.890625 1233.138306,1747.888428 
z"/>
<path fill="none" opacity="0" stroke="none" 
	d="
M85.372833,341.538025 
	C87.139328,355.705200 83.260315,366.753418 71.303490,373.851257 
	C62.088726,379.321350 52.286892,379.717255 42.880718,374.451782 
	C33.703438,369.314484 27.665724,361.901031 27.615038,350.567474 
	C27.547184,335.394653 35.550518,323.217682 48.133293,320.082123 
	C63.303955,316.301697 76.531105,322.594116 83.721596,337.044495 
	C84.311012,338.228973 84.709061,339.508728 85.372833,341.538025 
z"/>
<path fill="none" opacity="0" stroke="none" 
	d="
M2383.513428,1666.727173 
	C2378.469482,1683.420288 2365.958984,1691.217163 2350.151855,1689.694092 
	C2339.284668,1688.646729 2324.736084,1676.722900 2325.230225,1659.735474 
	C2325.560303,1648.386597 2337.166260,1633.553101 2350.654785,1632.222656 
	C2371.033691,1630.212646 2386.745361,1646.895020 2383.513428,1666.727173 
z"/>
<path fill="none" opacity="0" stroke="none" 
	d="
M224.510513,156.641144 
	C229.981064,159.845230 235.269089,162.234802 239.225418,166.017288 
	C247.168488,173.611328 248.988907,187.253372 244.389374,197.544891 
	C239.007370,209.587173 229.116318,215.133789 214.464142,214.326126 
	C204.333069,213.767700 193.827637,206.071213 190.807526,195.651367 
	C183.911270,171.858246 200.947601,155.755630 217.731445,156.333389 
	C219.728546,156.402145 221.727509,156.416916 224.510513,156.641144 
z"/>
<path fill="none" opacity="0" stroke="none" 
	d="
M2543.914062,1489.368408 
	C2544.973633,1500.697632 2544.648193,1510.623413 2536.004150,1518.693970 
	C2526.883301,1527.209839 2516.582520,1528.167603 2505.491211,1524.767700 
	C2495.895020,1521.826294 2487.185547,1509.333740 2487.354248,1498.579956 
	C2487.541504,1486.617676 2491.920898,1477.923462 2501.751953,1472.019897 
	C2511.002930,1466.464966 2520.793213,1466.615356 2530.179932,1471.948975 
	C2536.740723,1475.676880 2541.323975,1481.291016 2543.914062,1489.368408 
z"/>
<path fill="#FBFDFD" opacity="1.000000" stroke="none" 
	d="
M1232.194946,1747.793945 
	C1206.578003,1744.890625 1181.799561,1742.784302 1157.254028,1739.118408 
	C1113.529053,1732.588257 1070.586426,1722.161743 1028.902954,1707.537476 
	C998.554016,1696.889893 968.539490,1684.955078 939.279419,1671.612671 
	C889.234070,1648.791992 842.154053,1620.615234 798.139160,1587.526489 
	C769.964722,1566.346069 743.088257,1543.663452 717.558594,1519.270264 
	C679.206360,1482.625732 644.760010,1442.701172 614.101379,1399.517822 
	C569.777893,1337.086914 534.926575,1269.709961 509.384705,1197.474731 
	C494.521667,1155.440430 482.823456,1112.582764 475.264313,1068.689087 
	C471.165588,1044.888916 468.662415,1020.807007 465.694550,996.820679 
	C461.518890,963.072510 461.803711,929.130310 462.487518,895.245361 
	C463.048889,867.428162 465.655548,839.727905 469.289948,812.084717 
	C473.620972,779.142700 479.766418,746.609436 488.019318,714.470520 
	C501.602631,661.573792 520.146973,610.478333 544.026245,561.316772 
	C568.511536,510.907776 597.301758,463.179657 631.603455,418.818024 
	C651.134460,393.558990 671.868164,369.393494 693.997253,346.317566 
	C745.168396,292.957092 802.403442,247.343353 865.754822,209.350418 
	C916.660950,178.821167 970.236572,153.941895 1026.497559,135.061478 
	C1071.232056,120.049179 1116.938110,108.739525 1163.665039,101.819122 
	C1190.883057,97.788055 1218.148193,94.151688 1245.720459,93.671173 
	C1272.324097,93.207527 1298.977661,91.565437 1325.520020,92.642128 
	C1359.578613,94.023720 1393.486328,97.742416 1427.231445,103.294884 
	C1470.255737,110.374153 1512.524414,120.420357 1553.626099,134.618958 
	C1583.705444,145.009903 1613.347534,157.009186 1642.313354,170.203934 
	C1692.369995,193.006210 1739.464600,221.148666 1783.494873,254.216812 
	C1811.946289,275.584839 1839.088013,298.464783 1864.837524,323.115479 
	C1902.911621,359.565094 1937.106323,399.253967 1967.623779,442.131775 
	C2012.225220,504.798004 2047.159424,572.501099 2072.822754,645.036255 
	C2087.691406,687.061707 2099.258057,729.967102 2106.918457,773.828552 
	C2111.072998,797.617859 2113.352783,821.739136 2116.320068,845.730225 
	C2120.783447,881.813843 2120.416260,918.109070 2119.414307,954.302124 
	C2118.488525,987.740540 2114.841553,1021.066772 2109.445068,1054.129150 
	C2102.270752,1098.082642 2092.193604,1141.420410 2077.464355,1183.420898 
	C2066.930420,1213.457764 2055.061035,1243.138062 2041.883423,1272.111450 
	C2019.110718,1322.181030 1990.960205,1369.265381 1957.918213,1413.313354 
	C1936.565186,1441.778809 1913.661011,1468.898682 1889.043091,1494.674927 
	C1852.403809,1533.037964 1812.443970,1567.453003 1769.260376,1598.097290 
	C1706.822144,1642.405029 1639.408325,1677.217041 1567.168335,1702.738647 
	C1525.134521,1717.589111 1482.254883,1729.228027 1438.379272,1736.841064 
	C1414.585083,1740.969604 1390.480225,1743.338501 1366.491455,1746.307129 
	C1330.743164,1750.730713 1294.805908,1749.687866 1258.914917,1749.578857 
	C1250.321045,1749.552856 1241.730469,1748.479858 1232.194946,1747.793945 
M1699.469727,1614.077637 
	C1701.854248,1612.913208 1704.340210,1611.918091 1706.608032,1610.559082 
	C1752.057983,1583.323242 1793.911621,1551.265869 1833.273438,1515.884155 
	C1834.631714,1514.663208 1835.629028,1513.040527 1837.494507,1510.742920 
	C1804.521362,1510.742920 1772.819458,1510.742920 1740.899902,1510.742920 
	C1729.563965,1536.699463 1718.251465,1562.198975 1707.319946,1587.860718 
	C1703.702026,1596.353638 1701.065674,1605.264526 1697.388916,1614.191895 
	C1697.599976,1614.136475 1697.810913,1614.081177 1699.469727,1614.077637 
M1435.000000,1206.150391 
	C1484.874512,1206.150391 1534.749023,1206.150391 1584.839111,1206.150391 
	C1585.751465,1199.756958 1586.607178,1194.572144 1587.214722,1189.358276 
	C1589.478638,1169.927490 1591.882324,1150.509277 1593.809082,1131.044312 
	C1595.573608,1113.217773 1596.863892,1095.342529 1598.230957,1077.478638 
	C1600.153687,1052.352295 1602.470459,1027.240479 1603.642822,1002.077026 
	C1604.572266,982.125427 1604.060669,962.105652 1604.121582,942.115967 
	C1604.130371,939.209534 1603.763184,936.301941 1603.553711,933.151184 
	C1601.759277,932.776062 1600.515503,932.373901 1599.249756,932.284058 
	C1597.259521,932.142700 1595.254150,932.194275 1593.255249,932.194214 
	C1500.287598,932.191223 1407.319946,932.180908 1314.352295,932.229797 
	C1310.543823,932.231812 1306.735596,932.794067 1302.792725,933.105896 
	C1302.792725,1024.551025 1302.792725,1114.712524 1302.792725,1206.150635 
	C1346.587402,1206.150635 1389.793701,1206.150635 1435.000000,1206.150391 
M982.201782,773.542908 
	C980.885376,794.406982 978.994080,815.254883 978.404846,836.139465 
	C977.738220,859.765320 978.233398,883.424072 978.276001,907.068481 
	C978.276978,907.615845 978.904114,908.161987 979.241333,908.707397 
	C990.805969,910.730469 1271.278687,910.200623 1279.110352,907.953125 
	C1279.110352,817.730774 1279.110352,727.319641 1279.110352,636.593079 
	C1184.659912,636.593079 1090.908691,636.593079 997.102844,636.593079 
	C995.393005,648.773132 993.446106,660.198364 992.246826,671.701538 
	C989.873413,694.466309 987.971008,717.279724 985.756226,740.061646 
	C984.730408,750.612976 983.428833,761.137573 982.201782,773.542908 
M977.684937,951.085144 
	C978.351135,966.675659 978.940796,982.269897 979.704407,997.855652 
	C980.516785,1014.435730 980.998230,1031.052856 982.504395,1047.573608 
	C985.453125,1079.917236 988.853210,1112.222412 992.379150,1144.509521 
	C994.603149,1164.874756 997.393921,1185.178345 999.954041,1205.698242 
	C1093.299438,1205.698242 1186.050171,1205.698242 1278.720947,1205.698242 
	C1280.700684,1190.112915 1280.044067,939.977844 1278.055176,932.863403 
	C1178.279053,932.863403 1078.473877,932.863403 977.684692,932.863403 
	C977.684692,938.612000 977.684692,943.862488 977.684937,951.085144 
M1582.247681,638.615295 
	C1580.138428,633.029175 1575.340576,635.841797 1571.973999,635.834351 
	C1485.678589,635.643372 1399.382446,635.683655 1313.086548,635.683655 
	C1309.845825,635.683655 1306.605103,635.683655 1303.043457,635.683655 
	C1303.043457,727.421875 1303.043457,818.140808 1303.043457,909.200073 
	C1403.552612,909.200073 1503.361816,909.200073 1603.769653,909.200073 
	C1603.968628,905.882080 1604.375854,902.975769 1604.277954,900.086609 
	C1603.692993,882.825256 1603.077271,865.564087 1602.305664,848.310242 
	C1601.504272,830.395020 1601.066650,812.439270 1599.486816,794.588257 
	C1596.594116,761.902649 1593.160645,729.261108 1589.593018,696.640442 
	C1587.539795,677.866699 1584.781738,659.170105 1582.247681,638.615295 
M699.439392,698.404236 
	C682.105591,767.413147 670.900818,837.236206 670.185974,909.004822 
	C765.268616,909.004822 859.021851,909.004822 953.545898,909.004822 
	C952.915405,817.385010 961.223511,726.986633 972.522095,636.204102 
	C886.671448,636.204102 801.840271,636.204102 716.280457,636.204102 
	C710.743469,656.494080 705.246277,676.638245 699.439392,698.404236 
M767.001221,1206.150146 
	C835.919434,1205.988647 904.837646,1205.828003 973.755798,1205.641113 
	C974.022461,1205.640381 974.309692,1205.287842 974.547913,1205.058594 
	C974.773804,1204.841064 974.947937,1204.569702 975.452576,1203.934937 
	C974.381958,1195.775879 973.133850,1187.286255 972.176514,1178.763916 
	C969.918945,1158.668579 967.670715,1138.570679 965.656982,1118.449951 
	C962.984497,1091.748535 960.193726,1065.051392 958.099548,1038.301880 
	C956.261780,1014.827942 955.191772,991.290283 954.036255,967.768311 
	C953.595520,958.797058 953.934448,949.789673 953.756714,940.801941 
	C953.706726,938.272644 953.084656,935.754639 952.693054,933.007385 
	C949.718079,932.685852 947.452026,932.227661 945.185852,932.226685 
	C856.601135,932.189697 768.016357,932.184937 679.431641,932.236206 
	C676.605591,932.237854 673.779846,932.870850 670.006836,933.322998 
	C674.437866,1028.080200 698.943665,1117.315552 728.292969,1206.150391 
	C741.103943,1206.150391 753.052856,1206.150391 767.001221,1206.150146 
M1608.367310,636.256653 
	C1607.757202,637.329285 1606.527100,638.467163 1606.632080,639.464539 
	C1607.776855,650.342224 1609.204346,661.189636 1610.413086,672.061157 
	C1613.708618,701.701050 1616.989746,731.342773 1620.157227,760.996643 
	C1621.107910,769.897949 1621.730957,778.836487 1622.389404,787.766418 
	C1624.241577,812.887268 1626.288696,837.997681 1627.742920,863.142029 
	C1628.472656,875.760132 1628.028320,888.444031 1628.239258,901.096069 
	C1628.281494,903.631958 1628.887085,906.158447 1629.288452,909.096191 
	C1721.702026,909.096191 1813.413086,909.096191 1905.544189,909.096191 
	C1905.778076,905.821594 1906.220947,903.212158 1906.105835,900.627625 
	C1905.544189,888.031738 1904.680664,875.448303 1904.206909,862.849854 
	C1903.181641,835.589050 1898.689697,808.770813 1893.999023,781.987732 
	C1885.851807,735.470032 1873.745239,689.933777 1859.428589,644.967529 
	C1856.536865,635.885437 1856.384033,635.860962 1846.924927,635.861694 
	C1767.984741,635.867432 1689.044434,635.902222 1608.367310,636.256653 
M1872.871826,1117.852417 
	C1877.876953,1099.255127 1883.232178,1080.743530 1887.811523,1062.042114 
	C1896.261841,1027.531616 1902.242676,992.548218 1905.416382,957.162109 
	C1906.131958,949.184387 1908.052002,940.831604 1905.247437,932.955627 
	C1812.859863,932.955627 1721.080933,932.955627 1628.460571,932.955627 
	C1629.068481,1024.516602 1620.811401,1114.897583 1609.468262,1205.718506 
	C1688.047729,1205.718506 1765.793091,1205.718506 1844.740479,1205.718506 
	C1853.925049,1176.919312 1863.103882,1148.138062 1872.871826,1117.852417 
M1027.911133,446.858490 
	C1017.357300,501.436310 1008.164673,556.234131 1000.311218,611.755615 
	C1093.780518,611.755615 1186.245361,611.755615 1278.627319,611.755615 
	C1280.557373,598.545776 1280.021484,362.041046 1278.100342,354.907654 
	C1200.958496,354.907654 1123.789551,354.907654 1045.895142,354.907654 
	C1039.959229,385.268250 1034.103394,415.218536 1027.911133,446.858490 
M1413.000000,1229.683105 
	C1376.448120,1229.683105 1339.896240,1229.683105 1303.046387,1229.683105 
	C1303.046387,1316.107056 1303.046387,1401.487061 1303.046387,1487.194580 
	C1380.921143,1487.194580 1458.092163,1487.194580 1535.763794,1487.194580 
	C1553.688354,1401.933105 1569.440796,1316.666992 1581.784180,1229.682983 
	C1525.475952,1229.682983 1470.237915,1229.682983 1413.000000,1229.683105 
M1087.000000,1229.849365 
	C1059.514160,1230.043091 1032.012329,1229.441895 1004.401184,1230.198486 
	C1004.401184,1234.140015 1004.051147,1236.834351 1004.453796,1239.411133 
	C1010.286926,1276.739868 1015.795776,1314.126587 1022.242676,1351.350342 
	C1029.653809,1394.141968 1037.896484,1436.789795 1045.827026,1479.490845 
	C1047.348511,1487.682251 1047.453125,1487.785034 1056.128418,1487.789062 
	C1127.728271,1487.822388 1199.328125,1487.816650 1270.927979,1487.764771 
	C1273.470825,1487.762939 1276.013184,1487.157349 1279.135742,1486.759277 
	C1279.135742,1401.097290 1279.135742,1316.063110 1279.135742,1229.848999 
	C1215.350952,1229.848999 1152.175537,1229.848999 1087.000000,1229.849365 
M1302.191528,421.000000 
	C1302.341675,483.928009 1302.491211,546.856018 1302.663208,609.783997 
	C1302.663940,610.058777 1302.968872,610.345520 1303.162598,610.603394 
	C1303.361938,610.868774 1303.599487,611.105530 1303.940552,611.490601 
	C1394.912354,611.490601 1486.002808,611.490601 1577.670898,611.490601 
	C1577.670898,608.243958 1578.013794,605.600769 1577.619507,603.072449 
	C1571.746826,565.413269 1566.216187,527.693237 1559.713135,490.141907 
	C1552.359131,447.677338 1544.135986,405.362946 1536.231689,362.994293 
	C1534.619995,354.355927 1534.499390,354.221527 1526.360840,354.216705 
	C1454.760864,354.174377 1383.161011,354.181000 1311.561035,354.234131 
	C1308.724609,354.236237 1305.888672,354.850922 1302.191895,355.280090 
	C1302.191895,377.142853 1302.191895,398.071442 1302.191528,421.000000 
M935.000000,354.191833 
	C899.075317,354.191833 863.150635,354.191833 827.015015,354.191833 
	C824.565918,359.217255 822.210632,363.595520 820.251038,368.144257 
	C806.577332,399.885315 792.800415,431.583893 779.411377,463.445160 
	C760.091858,509.419006 742.555298,556.072510 727.188965,603.525330 
	C726.424255,605.886719 726.314026,608.460022 725.794250,611.559448 
	C809.585022,611.559448 892.347717,611.559448 976.019226,611.559448 
	C987.768799,528.075439 1003.004395,445.648682 1019.788208,363.499695 
	C1020.300720,360.991302 1019.853149,358.286743 1019.853149,354.192230 
	C992.040466,354.192230 964.520264,354.192230 935.000000,354.191833 
M791.853699,1377.236206 
	C806.723206,1413.862183 821.592773,1450.488281 836.471924,1487.137939 
	C898.574280,1487.137939 960.078308,1487.137939 1021.374878,1487.137939 
	C1006.800964,1401.166138 992.307983,1315.671753 977.848511,1230.375244 
	C897.966370,1230.375244 817.898682,1230.375244 736.539429,1230.375244 
	C753.642456,1280.053833 771.989990,1328.103760 791.853699,1377.236206 
M1571.344482,354.336426 
	C1567.740356,354.336426 1564.136230,354.336426 1560.524902,354.336426 
	C1575.174072,440.732544 1589.672119,526.238037 1604.182251,611.813843 
	C1685.007446,611.813843 1766.172119,611.813843 1848.326538,611.813843 
	C1816.885132,522.945068 1778.461426,438.035431 1736.988647,354.336548 
	C1681.852051,354.336548 1627.556763,354.336548 1571.344482,354.336426 
M1587.026245,1487.808350 
	C1629.988525,1487.808350 1672.951660,1487.686646 1715.912476,1487.937134 
	C1722.491211,1487.975464 1726.348877,1485.935425 1729.003052,1479.832031 
	C1741.063477,1452.096558 1753.733032,1424.623901 1765.627441,1396.818726 
	C1786.150635,1348.842285 1806.306885,1300.708496 1826.494751,1252.589478 
	C1829.402100,1245.659668 1831.628418,1238.444214 1834.502197,1230.435181 
	C1757.749146,1230.435181 1682.337280,1230.435181 1605.985596,1230.435181 
	C1594.221436,1313.896973 1579.007812,1396.330933 1562.212769,1478.480957 
	C1561.699829,1480.989868 1562.147949,1483.695435 1562.147949,1487.807983 
	C1569.963867,1487.807983 1577.502686,1487.807983 1587.026245,1487.808350 
M2036.279663,1206.150269 
	C2041.617310,1206.828857 2044.962524,1205.148071 2046.566284,1199.425293 
	C2048.623047,1192.085449 2051.772705,1185.060059 2054.184570,1177.810303 
	C2067.937744,1136.466187 2078.900391,1094.354004 2085.418701,1051.297607 
	C2089.581055,1023.802673 2091.322021,995.941467 2094.168701,968.246582 
	C2094.405273,965.944031 2094.867432,963.664551 2095.100098,961.361755 
	C2096.059814,951.873596 2096.569092,942.400818 2094.801025,933.264648 
	C2080.107422,931.088989 1938.324341,931.830139 1930.784912,934.155090 
	C1926.758057,1027.712158 1900.379395,1116.636475 1869.597168,1206.151001 
	C1925.460938,1206.151001 1979.946411,1206.151001 2036.279663,1206.150269 
M1923.920532,817.167175 
	C1926.661133,847.772827 1929.401733,878.378479 1932.148193,909.050415 
	C1949.896118,910.853699 2088.126953,910.062256 2095.882812,907.866699 
	C2094.234863,814.287109 2077.170166,723.589111 2044.150269,636.375610 
	C1989.634888,636.375610 1936.207031,636.375610 1881.951416,636.375610 
	C1900.763916,695.515381 1915.433960,754.721436 1923.920532,817.167175 
M664.998962,1206.317383 
	C677.253906,1206.317383 689.508850,1206.317383 703.002441,1206.317383 
	C674.138672,1116.365601 650.179871,1026.571777 645.988403,932.908691 
	C592.252991,932.908691 539.783569,932.908691 486.792023,932.908691 
	C486.619720,935.682922 486.283936,937.953308 486.372864,940.206909 
	C486.738831,949.482788 487.324219,958.750305 487.664612,968.026855 
	C488.736603,997.239502 492.503143,1026.152100 497.181702,1054.967529 
	C503.472076,1093.710571 513.053162,1131.664551 524.906250,1169.045410 
	C528.887451,1181.600586 533.637085,1193.912109 538.029175,1206.317383 
	C580.435547,1206.317383 621.717407,1206.317383 664.998962,1206.317383 
M666.109253,737.159485 
	C674.248474,703.715088 682.387634,670.270752 690.614563,636.465698 
	C688.759216,636.267944 686.815796,635.885315 684.871460,635.880737 
	C665.225403,635.834778 645.579102,635.849854 625.932922,635.849365 
	C599.294006,635.848755 572.653687,635.993042 546.017273,635.737549 
	C540.164307,635.681458 536.809509,637.222534 535.153137,643.215210 
	C533.122864,650.560486 530.018188,657.601379 527.603027,664.848877 
	C513.935547,705.862671 503.147980,747.666443 496.626587,790.368835 
	C492.429565,817.851013 490.696014,845.708923 487.829315,873.395386 
	C487.557159,876.023560 486.917084,878.618286 486.722931,881.248901 
	C486.045654,890.426758 485.535645,899.611267 487.068787,909.059814 
	C540.440491,909.059814 592.831909,909.059814 645.242493,909.059814 
	C646.125732,898.785156 647.556763,889.256775 647.643616,879.716248 
	C647.855835,856.422058 650.358521,833.359375 653.891785,810.406433 
	C657.571838,786.501160 661.822388,762.683716 666.109253,737.159485 
M1111.270264,136.145126 
	C1109.018188,136.725235 1106.788940,137.681946 1104.510132,137.819473 
	C1095.252686,138.378128 1092.057495,143.912109 1090.244385,152.365768 
	C1078.132446,208.836624 1065.588135,265.214722 1053.247803,321.636810 
	C1052.590576,324.642395 1052.506836,327.773438 1052.162354,330.791565 
	C1070.141724,333.147980 1271.777100,332.232880 1278.657471,329.939209 
	C1280.562744,319.903809 1280.211548,125.179276 1277.847534,116.008720 
	C1222.430298,117.146248 1167.336792,123.448174 1111.270264,136.145126 
M1516.200317,1577.360718 
	C1521.218506,1555.507935 1526.286621,1533.664917 1530.416260,1511.046509 
	C1526.842041,1510.668579 1524.583252,1510.222046 1522.324341,1510.220947 
	C1452.021606,1510.184082 1381.718872,1510.178589 1311.416138,1510.234619 
	C1308.588623,1510.236816 1305.761597,1510.885742 1303.233276,1511.196655 
	C1300.986084,1526.870850 1301.815186,1717.767944 1304.166016,1725.148682 
	C1306.537598,1725.358521 1309.144775,1725.884644 1311.721436,1725.763184 
	C1320.328735,1725.357666 1328.933838,1724.829590 1337.523804,1724.147949 
	C1353.057495,1722.914917 1368.579956,1721.541138 1384.106445,1720.219482 
	C1415.596069,1717.538818 1446.422119,1711.097900 1477.241577,1704.383911 
	C1485.970581,1702.482544 1489.905273,1698.510742 1491.715210,1689.928711 
	C1499.523682,1652.903809 1507.895142,1615.997681 1516.200317,1577.360718 
M1463.000000,331.668121 
	C1485.113159,331.668121 1507.226440,331.668121 1529.515137,331.668121 
	C1529.392822,329.236572 1529.481567,328.226501 1529.274414,327.281281 
	C1522.029785,294.211639 1515.189087,261.045288 1507.353882,228.115707 
	C1500.899414,200.990021 1493.232910,174.153442 1486.172974,147.170563 
	C1484.828003,142.030045 1482.827515,138.523544 1476.645508,137.460861 
	C1452.466553,133.304489 1428.514893,127.680695 1404.247681,124.223351 
	C1379.012451,120.628075 1353.527588,118.709885 1328.115356,116.475861 
	C1319.937988,115.756973 1311.644165,116.363190 1302.885742,116.363190 
	C1302.885742,188.447205 1302.885742,259.525665 1302.885742,331.668030 
	C1355.934326,331.668030 1408.467163,331.668030 1463.000000,331.668121 
M1147.750122,1713.436890 
	C1183.067749,1719.673096 1218.712524,1723.093750 1254.452515,1725.563354 
	C1262.600830,1726.126343 1270.821411,1725.646240 1278.822632,1725.646240 
	C1280.782959,1707.374023 1280.032227,1517.951904 1278.128906,1510.921021 
	C1203.002441,1510.921021 1127.875977,1510.921021 1052.348267,1510.921021 
	C1052.609497,1512.837280 1052.700073,1514.139404 1052.971680,1515.402344 
	C1058.763550,1542.342773 1064.063843,1569.402222 1070.514648,1596.184326 
	C1078.446655,1629.115845 1087.418945,1661.795776 1095.748535,1694.633423 
	C1097.213379,1700.408325 1099.747314,1703.642456 1106.133789,1704.700684 
	C1119.544922,1706.922485 1132.798462,1710.094971 1147.750122,1713.436890 
M1860.744507,1230.598389 
	C1854.711670,1246.074341 1849.115601,1261.737793 1842.570557,1276.994141 
	C1813.753052,1344.168091 1784.659180,1411.223267 1755.679199,1478.327637 
	C1754.461182,1481.147705 1753.380615,1484.026978 1751.920776,1487.664062 
	C1788.263062,1487.664062 1822.902100,1487.598022 1857.540283,1487.752319 
	C1861.620483,1487.770386 1864.499390,1486.405762 1867.059326,1483.488159 
	C1884.367065,1463.761108 1902.314453,1444.560425 1918.932495,1424.270020 
	C1961.727051,1372.018555 1996.427124,1314.656128 2024.479004,1253.254883 
	C2027.879639,1245.811401 2030.888916,1238.189087 2034.198853,1230.367920 
	C2032.195312,1230.038330 2031.217285,1229.736328 2030.239502,1229.736938 
	C1974.274902,1229.774536 1918.310303,1229.837036 1860.744507,1230.598389 
M1997.746216,535.299927 
	C1990.370728,522.662415 1983.216797,509.889252 1975.577759,497.413025 
	C1953.127197,460.745514 1927.529175,426.373169 1899.194580,394.050171 
	C1888.902100,382.308838 1878.214233,370.914062 1867.920654,359.173645 
	C1864.521973,355.297333 1860.695923,354.062317 1855.646851,354.098328 
	C1828.332764,354.293396 1801.016602,354.165863 1773.701416,354.234406 
	C1771.236206,354.240601 1768.772461,354.850708 1765.478394,355.291321 
	C1766.776001,358.658997 1767.567993,361.117584 1768.643799,363.444977 
	C1780.364746,388.801483 1792.117432,414.143250 1803.885864,439.477722 
	C1828.695679,492.887268 1850.834106,547.385986 1870.586426,602.860413 
	C1873.884766,612.123596 1873.935425,612.141968 1883.999878,612.144958 
	C1930.635864,612.158997 1977.271973,612.163513 2023.907959,612.123169 
	C2027.026733,612.120483 2030.145142,611.718994 2034.111816,611.444214 
	C2023.093384,585.099243 2011.870850,560.333191 1997.746216,535.299927 
M653.000000,1229.848755 
	C618.710083,1229.986206 584.420227,1230.122559 550.130432,1230.276611 
	C549.821899,1230.277954 549.436646,1230.441284 549.228394,1230.662231 
	C549.021545,1230.881714 548.993103,1231.269531 548.784851,1231.882568 
	C548.941895,1232.563721 549.027588,1233.556519 549.393311,1234.432495 
	C565.443909,1272.879272 584.685974,1309.676880 606.660217,1345.057007 
	C629.866943,1382.421509 655.829834,1417.734497 685.219971,1450.493530 
	C694.980103,1461.372437 704.844421,1472.161255 714.413452,1483.205811 
	C717.882812,1487.210205 721.957520,1487.905640 726.857788,1487.876587 
	C751.504700,1487.729980 776.153015,1487.830933 800.800720,1487.779663 
	C803.643127,1487.773682 806.484741,1487.361572 809.570801,1487.118530 
	C809.249146,1486.290161 709.883850,1230.388550 709.674133,1229.848389 
	C691.592285,1229.848389 673.296143,1229.848389 653.000000,1229.848755 
M573.864075,554.830566 
	C564.528198,573.351074 555.453735,591.985107 547.907654,611.861084 
	C599.025879,611.861084 648.937805,611.861084 697.993713,611.861084 
	C714.204468,568.214539 729.460754,524.973572 746.315491,482.364838 
	C763.231262,439.601593 781.740417,397.468628 799.856018,354.333862 
	C779.101440,354.333862 759.416321,355.015503 739.805664,354.101288 
	C726.053345,353.460205 716.035034,356.588776 706.192017,367.626740 
	C684.481079,391.973389 663.161682,416.564484 643.583740,442.637543 
	C617.347839,477.577240 594.806335,514.850586 573.864075,554.830566 
M905.234131,214.132370 
	C900.622498,216.774353 895.751831,219.061813 891.486267,222.177551 
	C888.423096,224.415009 885.271606,227.335052 883.692261,230.675293 
	C868.788208,262.196320 854.196594,293.865326 839.591309,325.526855 
	C838.815674,327.208252 838.726318,329.206238 838.323547,331.029602 
	C901.263123,331.029602 963.684998,331.029602 1026.440430,331.029602 
	C1039.865356,270.087555 1053.171265,209.686569 1066.832397,147.672638 
	C1055.497681,151.161591 1045.730103,153.915314 1036.130737,157.166092 
	C991.374817,172.322647 948.052612,190.801407 905.234131,214.132370 
M1005.276001,1673.738281 
	C1026.269775,1681.263672 1046.974976,1689.761963 1069.337891,1694.151245 
	C1054.844727,1632.239136 1040.668823,1571.682617 1026.421631,1510.821777 
	C966.848267,1510.821777 907.781616,1510.821777 847.888733,1510.821777 
	C848.403137,1513.749512 848.465942,1516.039429 849.214294,1518.077881 
	C860.656616,1549.243652 872.116211,1580.403687 883.822449,1611.470703 
	C884.876099,1614.266968 887.172546,1617.231567 889.710999,1618.735962 
	C926.106018,1640.305908 964.302490,1658.140015 1005.276001,1673.738281 
M1529.617554,217.552673 
	C1533.113159,233.095078 1536.685669,248.620728 1540.085205,264.184143 
	C1544.333252,283.631958 1548.380249,303.123779 1552.633179,322.570496 
	C1554.520142,331.197815 1555.080444,331.766205 1562.791138,331.775787 
	C1614.417114,331.839966 1666.043213,331.823395 1717.669067,331.749969 
	C1719.752808,331.746979 1721.835327,330.910736 1724.544800,330.327972 
	C1723.198486,327.046539 1722.370972,324.549561 1721.192993,322.230621 
	C1702.501465,285.434692 1683.705444,248.691544 1665.115601,211.844360 
	C1662.842651,207.338913 1659.497192,204.638931 1655.133301,202.639526 
	C1639.416016,195.438339 1623.845703,187.904831 1608.014282,180.966415 
	C1579.067139,168.279922 1549.325806,157.713196 1519.005371,148.803955 
	C1517.021362,148.221008 1514.717285,148.727966 1512.035034,148.727966 
	C1517.846924,171.637115 1523.471436,193.807968 1529.617554,217.552673 
M1563.716553,1510.329956 
	C1558.752686,1509.984253 1555.343384,1510.299316 1553.926636,1516.917969 
	C1541.847046,1573.354004 1529.252563,1629.679810 1516.865356,1686.050171 
	C1516.344604,1688.420288 1516.345825,1690.905151 1516.098022,1693.394165 
	C1517.434814,1693.394165 1517.789673,1693.471558 1518.097046,1693.383301 
	C1567.084839,1679.296387 1614.000977,1660.021240 1659.484375,1637.111816 
	C1663.484985,1635.096558 1664.961670,1631.989624 1666.491455,1628.114624 
	C1678.192993,1598.478271 1690.100586,1568.922485 1702.082031,1539.397705 
	C1705.902954,1529.982178 1710.139404,1520.735229 1714.654907,1510.329956 
	C1663.962402,1510.329956 1614.766602,1510.329956 1563.716553,1510.329956 
M1734.105957,294.785004 
	C1740.237061,306.962219 1746.368286,319.139404 1752.450684,331.219910 
	C1780.784912,331.219910 1808.604858,331.219910 1836.761963,331.219910 
	C1822.364746,311.463409 1722.145142,235.307709 1701.758911,230.931198 
	C1712.438110,251.939789 1722.979126,272.676819 1734.105957,294.785004 
M852.109192,1592.937134 
	C851.831177,1591.641113 851.724915,1590.278320 851.249756,1589.059082 
	C841.490845,1564.016968 831.699341,1538.987549 821.867859,1513.973877 
	C821.403625,1512.792847 820.509888,1511.780640 819.957581,1510.912231 
	C794.834229,1510.912231 770.127258,1510.912231 744.454895,1510.912231 
	C745.827026,1512.777222 746.414856,1513.951660 747.326721,1514.760864 
	C772.412964,1537.020142 798.073730,1558.583130 825.582886,1577.821411 
	C833.968262,1583.685669 842.815430,1588.889648 852.109192,1592.937134 
M827.762695,262.795288 
	C798.463684,283.134705 770.995056,305.674011 745.353699,330.814575 
	C766.296509,331.789917 786.782288,331.760101 807.267883,331.816742 
	C811.056152,331.827209 812.240601,329.229034 813.522888,326.432587 
	C824.172180,303.208160 834.879761,280.010468 845.501282,256.773376 
	C846.336121,254.947067 846.655090,252.884918 847.840820,248.740829 
	C840.248840,254.025711 834.576050,257.974609 827.762695,262.795288 
z"/>
<path fill="#8FBFD3" opacity="1.000000" stroke="none" 
	d="
M1434.000000,1206.150513 
	C1389.793701,1206.150635 1346.587402,1206.150635 1302.792725,1206.150635 
	C1302.792725,1114.712524 1302.792725,1024.551025 1302.792725,933.105896 
	C1306.735596,932.794067 1310.543823,932.231812 1314.352295,932.229797 
	C1407.319946,932.180908 1500.287598,932.191223 1593.255249,932.194214 
	C1595.254150,932.194275 1597.259521,932.142700 1599.249756,932.284058 
	C1600.515503,932.373901 1601.759277,932.776062 1603.553711,933.151184 
	C1603.763184,936.301941 1604.130371,939.209534 1604.121582,942.115967 
	C1604.060669,962.105652 1604.572266,982.125427 1603.642822,1002.077026 
	C1602.470459,1027.240479 1600.153687,1052.352295 1598.230957,1077.478638 
	C1596.863892,1095.342529 1595.573608,1113.217773 1593.809082,1131.044312 
	C1591.882324,1150.509277 1589.478638,1169.927490 1587.214722,1189.358276 
	C1586.607178,1194.572144 1585.751465,1199.756958 1584.839111,1206.150391 
	C1534.749023,1206.150391 1484.874512,1206.150391 1434.000000,1206.150513 
z"/>
<path fill="#8FBFD3" opacity="1.000000" stroke="none" 
	d="
M982.227051,772.608582 
	C983.428833,761.137573 984.730408,750.612976 985.756226,740.061646 
	C987.971008,717.279724 989.873413,694.466309 992.246826,671.701538 
	C993.446106,660.198364 995.393005,648.773132 997.102844,636.593079 
	C1090.908691,636.593079 1184.659912,636.593079 1279.110352,636.593079 
	C1279.110352,727.319641 1279.110352,817.730774 1279.110352,907.953125 
	C1271.278687,910.200623 990.805969,910.730469 979.240234,908.708008 
	C978.904114,908.161987 978.276978,907.615845 978.276001,907.068481 
	C978.233398,883.424072 977.738220,859.765320 978.404846,836.139465 
	C978.994080,815.254883 980.885376,794.406982 982.227051,772.608582 
z"/>
<path fill="#12925D" opacity="1.000000" stroke="none" 
	d="
M977.684814,950.099060 
	C977.684692,943.862488 977.684692,938.612000 977.684692,932.863403 
	C1078.473877,932.863403 1178.279053,932.863403 1278.055176,932.863403 
	C1280.044067,939.977844 1280.700684,1190.112915 1278.720947,1205.698242 
	C1186.050171,1205.698242 1093.299438,1205.698242 999.954041,1205.698242 
	C997.393921,1185.178345 994.603149,1164.874756 992.379150,1144.509521 
	C988.853210,1112.222412 985.453125,1079.917236 982.504395,1047.573608 
	C980.998230,1031.052856 980.516785,1014.435730 979.704407,997.855652 
	C978.940796,982.269897 978.351135,966.675659 977.684814,950.099060 
z"/>
<path fill="#12925D" opacity="1.000000" stroke="none" 
	d="
M1582.294189,639.527039 
	C1584.781738,659.170105 1587.539795,677.866699 1589.593018,696.640442 
	C1593.160645,729.261108 1596.594116,761.902649 1599.486816,794.588257 
	C1601.066650,812.439270 1601.504272,830.395020 1602.305664,848.310242 
	C1603.077271,865.564087 1603.692993,882.825256 1604.277954,900.086609 
	C1604.375854,902.975769 1603.968628,905.882080 1603.769653,909.200073 
	C1503.361816,909.200073 1403.552612,909.200073 1303.043457,909.200073 
	C1303.043457,818.140808 1303.043457,727.421875 1303.043457,635.683655 
	C1306.605103,635.683655 1309.845825,635.683655 1313.086548,635.683655 
	C1399.382446,635.683655 1485.678589,635.643372 1571.973999,635.834351 
	C1575.340576,635.841797 1580.138428,633.029175 1582.294189,639.527039 
z"/>
<path fill="#12925D" opacity="1.000000" stroke="none" 
	d="
M699.594238,697.593262 
	C705.246277,676.638245 710.743469,656.494080 716.280457,636.204102 
	C801.840271,636.204102 886.671448,636.204102 972.522095,636.204102 
	C961.223511,726.986633 952.915405,817.385010 953.545898,909.004822 
	C859.021851,909.004822 765.268616,909.004822 670.185974,909.004822 
	C670.900818,837.236206 682.105591,767.413147 699.594238,697.593262 
z"/>
<path fill="#8FBFD3" opacity="1.000000" stroke="none" 
	d="
M766.001526,1206.150269 
	C753.052856,1206.150391 741.103943,1206.150391 728.292969,1206.150391 
	C698.943665,1117.315552 674.437866,1028.080200 670.006836,933.322998 
	C673.779846,932.870850 676.605591,932.237854 679.431641,932.236206 
	C768.016357,932.184937 856.601135,932.189697 945.185852,932.226685 
	C947.452026,932.227661 949.718079,932.685852 952.693054,933.007385 
	C953.084656,935.754639 953.706726,938.272644 953.756714,940.801941 
	C953.934448,949.789673 953.595520,958.797058 954.036255,967.768311 
	C955.191772,991.290283 956.261780,1014.827942 958.099548,1038.301880 
	C960.193726,1065.051392 962.984497,1091.748535 965.656982,1118.449951 
	C967.670715,1138.570679 969.918945,1158.668579 972.176514,1178.763916 
	C973.133850,1187.286255 974.381958,1195.775879 975.452576,1203.934937 
	C974.947937,1204.569702 974.773804,1204.841064 974.547913,1205.058594 
	C974.309692,1205.287842 974.022461,1205.640381 973.755798,1205.641113 
	C904.837646,1205.828003 835.919434,1205.988647 766.001526,1206.150269 
z"/>
<path fill="#8FBFD3" opacity="1.000000" stroke="none" 
	d="
M1609.235840,636.092468 
	C1689.044434,635.902222 1767.984741,635.867432 1846.924927,635.861694 
	C1856.384033,635.860962 1856.536865,635.885437 1859.428589,644.967529 
	C1873.745239,689.933777 1885.851807,735.470032 1893.999023,781.987732 
	C1898.689697,808.770813 1903.181641,835.589050 1904.206909,862.849854 
	C1904.680664,875.448303 1905.544189,888.031738 1906.105835,900.627625 
	C1906.220947,903.212158 1905.778076,905.821594 1905.544189,909.096191 
	C1813.413086,909.096191 1721.702026,909.096191 1629.288452,909.096191 
	C1628.887085,906.158447 1628.281494,903.631958 1628.239258,901.096069 
	C1628.028320,888.444031 1628.472656,875.760132 1627.742920,863.142029 
	C1626.288696,837.997681 1624.241577,812.887268 1622.389404,787.766418 
	C1621.730957,778.836487 1621.107910,769.897949 1620.157227,760.996643 
	C1616.989746,731.342773 1613.708618,701.701050 1610.413086,672.061157 
	C1609.204346,661.189636 1607.776855,650.342224 1606.632080,639.464539 
	C1606.527100,638.467163 1607.757202,637.329285 1609.235840,636.092468 
z"/>
<path fill="#12925D" opacity="1.000000" stroke="none" 
	d="
M1872.577271,1118.604614 
	C1863.103882,1148.138062 1853.925049,1176.919312 1844.740479,1205.718506 
	C1765.793091,1205.718506 1688.047729,1205.718506 1609.468262,1205.718506 
	C1620.811401,1114.897583 1629.068481,1024.516602 1628.460571,932.955627 
	C1721.080933,932.955627 1812.859863,932.955627 1905.247437,932.955627 
	C1908.052002,940.831604 1906.131958,949.184387 1905.416382,957.162109 
	C1902.242676,992.548218 1896.261841,1027.531616 1887.811523,1062.042114 
	C1883.232178,1080.743530 1877.876953,1099.255127 1872.577271,1118.604614 
z"/>
<path fill="#12935D" opacity="1.000000" stroke="none" 
	d="
M1028.079346,446.013672 
	C1034.103394,415.218536 1039.959229,385.268250 1045.895142,354.907654 
	C1123.789551,354.907654 1200.958496,354.907654 1278.100342,354.907654 
	C1280.021484,362.041046 1280.557373,598.545776 1278.627319,611.755615 
	C1186.245361,611.755615 1093.780518,611.755615 1000.311218,611.755615 
	C1008.164673,556.234131 1017.357300,501.436310 1028.079346,446.013672 
z"/>
<path fill="#12935D" opacity="1.000000" stroke="none" 
	d="
M1414.000000,1229.683105 
	C1470.237915,1229.682983 1525.475952,1229.682983 1581.784180,1229.682983 
	C1569.440796,1316.666992 1553.688354,1401.933105 1535.763794,1487.194580 
	C1458.092163,1487.194580 1380.921143,1487.194580 1303.046387,1487.194580 
	C1303.046387,1401.487061 1303.046387,1316.107056 1303.046387,1229.683105 
	C1339.896240,1229.683105 1376.448120,1229.683105 1414.000000,1229.683105 
z"/>
<path fill="#90BFD3" opacity="1.000000" stroke="none" 
	d="
M1088.000000,1229.849121 
	C1152.175537,1229.848999 1215.350952,1229.848999 1279.135742,1229.848999 
	C1279.135742,1316.063110 1279.135742,1401.097290 1279.135742,1486.759277 
	C1276.013184,1487.157349 1273.470825,1487.762939 1270.927979,1487.764771 
	C1199.328125,1487.816650 1127.728271,1487.822388 1056.128418,1487.789062 
	C1047.453125,1487.785034 1047.348511,1487.682251 1045.827026,1479.490845 
	C1037.896484,1436.789795 1029.653809,1394.141968 1022.242676,1351.350342 
	C1015.795776,1314.126587 1010.286926,1276.739868 1004.453796,1239.411133 
	C1004.051147,1236.834351 1004.401184,1234.140015 1004.401184,1230.198486 
	C1032.012329,1229.441895 1059.514160,1230.043091 1088.000000,1229.849121 
z"/>
<path fill="#90BFD3" opacity="1.000000" stroke="none" 
	d="
M1302.191650,420.000000 
	C1302.191895,398.071442 1302.191895,377.142853 1302.191895,355.280090 
	C1305.888672,354.850922 1308.724609,354.236237 1311.561035,354.234131 
	C1383.161011,354.181000 1454.760864,354.174377 1526.360840,354.216705 
	C1534.499390,354.221527 1534.619995,354.355927 1536.231689,362.994293 
	C1544.135986,405.362946 1552.359131,447.677338 1559.713135,490.141907 
	C1566.216187,527.693237 1571.746826,565.413269 1577.619507,603.072449 
	C1578.013794,605.600769 1577.670898,608.243958 1577.670898,611.490601 
	C1486.002808,611.490601 1394.912354,611.490601 1303.940552,611.490601 
	C1303.599487,611.105530 1303.361938,610.868774 1303.162598,610.603394 
	C1302.968872,610.345520 1302.663940,610.058777 1302.663208,609.783997 
	C1302.491211,546.856018 1302.341675,483.928009 1302.191650,420.000000 
z"/>
<path fill="#8FBFD3" opacity="1.000000" stroke="none" 
	d="
M936.000000,354.192017 
	C964.520264,354.192230 992.040466,354.192230 1019.853149,354.192230 
	C1019.853149,358.286743 1020.300720,360.991302 1019.788208,363.499695 
	C1003.004395,445.648682 987.768799,528.075439 976.019226,611.559448 
	C892.347717,611.559448 809.585022,611.559448 725.794250,611.559448 
	C726.314026,608.460022 726.424255,605.886719 727.188965,603.525330 
	C742.555298,556.072510 760.091858,509.419006 779.411377,463.445160 
	C792.800415,431.583893 806.577332,399.885315 820.251038,368.144257 
	C822.210632,363.595520 824.565918,359.217255 827.015015,354.191833 
	C863.150635,354.191833 899.075317,354.191833 936.000000,354.192017 
z"/>
<path fill="#12925D" opacity="1.000000" stroke="none" 
	d="
M791.531555,1376.534180 
	C771.989990,1328.103760 753.642456,1280.053833 736.539429,1230.375244 
	C817.898682,1230.375244 897.966370,1230.375244 977.848511,1230.375244 
	C992.307983,1315.671753 1006.800964,1401.166138 1021.374878,1487.137939 
	C960.078308,1487.137939 898.574280,1487.137939 836.471924,1487.137939 
	C821.592773,1450.488281 806.723206,1413.862183 791.531555,1376.534180 
z"/>
<path fill="#12925D" opacity="1.000000" stroke="none" 
	d="
M1572.302979,354.336487 
	C1627.556763,354.336548 1681.852051,354.336548 1736.988647,354.336548 
	C1778.461426,438.035431 1816.885132,522.945068 1848.326538,611.813843 
	C1766.172119,611.813843 1685.007446,611.813843 1604.182251,611.813843 
	C1589.672119,526.238037 1575.174072,440.732544 1560.524902,354.336426 
	C1564.136230,354.336426 1567.740356,354.336426 1572.302979,354.336487 
z"/>
<path fill="#90BFD3" opacity="1.000000" stroke="none" 
	d="
M1586.033813,1487.808105 
	C1577.502686,1487.807983 1569.963867,1487.807983 1562.147949,1487.807983 
	C1562.147949,1483.695435 1561.699829,1480.989868 1562.212769,1478.480957 
	C1579.007812,1396.330933 1594.221436,1313.896973 1605.985596,1230.435181 
	C1682.337280,1230.435181 1757.749146,1230.435181 1834.502197,1230.435181 
	C1831.628418,1238.444214 1829.402100,1245.659668 1826.494751,1252.589478 
	C1806.306885,1300.708496 1786.150635,1348.842285 1765.627441,1396.818726 
	C1753.733032,1424.623901 1741.063477,1452.096558 1729.003052,1479.832031 
	C1726.348877,1485.935425 1722.491211,1487.975464 1715.912476,1487.937134 
	C1672.951660,1487.686646 1629.988525,1487.808350 1586.033813,1487.808105 
z"/>
<path fill="#90BFD3" opacity="1.000000" stroke="none" 
	d="
M2035.355713,1206.150635 
	C1979.946411,1206.151001 1925.460938,1206.151001 1869.597168,1206.151001 
	C1900.379395,1116.636475 1926.758057,1027.712158 1930.784912,934.155090 
	C1938.324341,931.830139 2080.107422,931.088989 2094.801025,933.264648 
	C2096.569092,942.400818 2096.059814,951.873596 2095.100098,961.361755 
	C2094.867432,963.664551 2094.405273,965.944031 2094.168701,968.246582 
	C2091.322021,995.941467 2089.581055,1023.802673 2085.418701,1051.297607 
	C2078.900391,1094.354004 2067.937744,1136.466187 2054.184570,1177.810303 
	C2051.772705,1185.060059 2048.623047,1192.085449 2046.566284,1199.425293 
	C2044.962524,1205.148071 2041.617310,1206.828857 2035.355713,1206.150635 
z"/>
<path fill="#12935D" opacity="1.000000" stroke="none" 
	d="
M1923.828491,816.278442 
	C1915.433960,754.721436 1900.763916,695.515381 1881.951416,636.375610 
	C1936.207031,636.375610 1989.634888,636.375610 2044.150269,636.375610 
	C2077.170166,723.589111 2094.234863,814.287109 2095.882812,907.866699 
	C2088.126953,910.062256 1949.896118,910.853699 1932.148193,909.050415 
	C1929.401733,878.378479 1926.661133,847.772827 1923.828491,816.278442 
z"/>
<path fill="#12935D" opacity="1.000000" stroke="none" 
	d="
M663.999084,1206.317383 
	C621.717407,1206.317383 580.435547,1206.317383 538.029175,1206.317383 
	C533.637085,1193.912109 528.887451,1181.600586 524.906250,1169.045410 
	C513.053162,1131.664551 503.472076,1093.710571 497.181702,1054.967529 
	C492.503143,1026.152100 488.736603,997.239502 487.664612,968.026855 
	C487.324219,958.750305 486.738831,949.482788 486.372864,940.206909 
	C486.283936,937.953308 486.619720,935.682922 486.792023,932.908691 
	C539.783569,932.908691 592.252991,932.908691 645.988403,932.908691 
	C650.179871,1026.571777 674.138672,1116.365601 703.002441,1206.317383 
	C689.508850,1206.317383 677.253906,1206.317383 663.999084,1206.317383 
z"/>
<path fill="#90BFD3" opacity="1.000000" stroke="none" 
	d="
M665.966370,737.993652 
	C661.822388,762.683716 657.571838,786.501160 653.891785,810.406433 
	C650.358521,833.359375 647.855835,856.422058 647.643616,879.716248 
	C647.556763,889.256775 646.125732,898.785156 645.242493,909.059814 
	C592.831909,909.059814 540.440491,909.059814 487.068787,909.059814 
	C485.535645,899.611267 486.045654,890.426758 486.722931,881.248901 
	C486.917084,878.618286 487.557159,876.023560 487.829315,873.395386 
	C490.696014,845.708923 492.429565,817.851013 496.626587,790.368835 
	C503.147980,747.666443 513.935547,705.862671 527.603027,664.848877 
	C530.018188,657.601379 533.122864,650.560486 535.153137,643.215210 
	C536.809509,637.222534 540.164307,635.681458 546.017273,635.737549 
	C572.653687,635.993042 599.294006,635.848755 625.932922,635.849365 
	C645.579102,635.849854 665.225403,635.834778 684.871460,635.880737 
	C686.815796,635.885315 688.759216,636.267944 690.614563,636.465698 
	C682.387634,670.270752 674.248474,703.715088 665.966370,737.993652 
z"/>
<path fill="#90BFD3" opacity="1.000000" stroke="none" 
	d="
M1112.093506,136.006073 
	C1167.336792,123.448174 1222.430298,117.146248 1277.847534,116.008720 
	C1280.211548,125.179276 1280.562744,319.903809 1278.657471,329.939209 
	C1271.777100,332.232880 1070.141724,333.147980 1052.162354,330.791565 
	C1052.506836,327.773438 1052.590576,324.642395 1053.247803,321.636810 
	C1065.588135,265.214722 1078.132446,208.836624 1090.244385,152.365768 
	C1092.057495,143.912109 1095.252686,138.378128 1104.510132,137.819473 
	C1106.788940,137.681946 1109.018188,136.725235 1112.093506,136.006073 
z"/>
<path fill="#90BFD3" opacity="1.000000" stroke="none" 
	d="
M1516.131104,1578.204590 
	C1507.895142,1615.997681 1499.523682,1652.903809 1491.715210,1689.928711 
	C1489.905273,1698.510742 1485.970581,1702.482544 1477.241577,1704.383911 
	C1446.422119,1711.097900 1415.596069,1717.538818 1384.106445,1720.219482 
	C1368.579956,1721.541138 1353.057495,1722.914917 1337.523804,1724.147949 
	C1328.933838,1724.829590 1320.328735,1725.357666 1311.721436,1725.763184 
	C1309.144775,1725.884644 1306.537598,1725.358521 1304.166016,1725.148682 
	C1301.815186,1717.767944 1300.986084,1526.870850 1303.233276,1511.196655 
	C1305.761597,1510.885742 1308.588623,1510.236816 1311.416138,1510.234619 
	C1381.718872,1510.178589 1452.021606,1510.184082 1522.324341,1510.220947 
	C1524.583252,1510.222046 1526.842041,1510.668579 1530.416260,1511.046509 
	C1526.286621,1533.664917 1521.218506,1555.507935 1516.131104,1578.204590 
z"/>
<path fill="#13935D" opacity="1.000000" stroke="none" 
	d="
M1462.000000,331.668091 
	C1408.467163,331.668030 1355.934326,331.668030 1302.885742,331.668030 
	C1302.885742,259.525665 1302.885742,188.447205 1302.885742,116.363190 
	C1311.644165,116.363190 1319.937988,115.756973 1328.115356,116.475861 
	C1353.527588,118.709885 1379.012451,120.628075 1404.247681,124.223351 
	C1428.514893,127.680695 1452.466553,133.304489 1476.645508,137.460861 
	C1482.827515,138.523544 1484.828003,142.030045 1486.172974,147.170563 
	C1493.232910,174.153442 1500.899414,200.990021 1507.353882,228.115707 
	C1515.189087,261.045288 1522.029785,294.211639 1529.274414,327.281281 
	C1529.481567,328.226501 1529.392822,329.236572 1529.515137,331.668121 
	C1507.226440,331.668121 1485.113159,331.668121 1462.000000,331.668091 
z"/>
<path fill="#13935D" opacity="1.000000" stroke="none" 
	d="
M1146.933350,1713.157104 
	C1132.798462,1710.094971 1119.544922,1706.922485 1106.133789,1704.700684 
	C1099.747314,1703.642456 1097.213379,1700.408325 1095.748535,1694.633423 
	C1087.418945,1661.795776 1078.446655,1629.115845 1070.514648,1596.184326 
	C1064.063843,1569.402222 1058.763550,1542.342773 1052.971680,1515.402344 
	C1052.700073,1514.139404 1052.609497,1512.837280 1052.348267,1510.921021 
	C1127.875977,1510.921021 1203.002441,1510.921021 1278.129639,1510.927734 
	C1280.032227,1517.951904 1280.782959,1707.374023 1278.822632,1725.646240 
	C1270.821411,1725.646240 1262.600830,1726.126343 1254.452515,1725.563354 
	C1218.712524,1723.093750 1183.067749,1719.673096 1146.933350,1713.157104 
z"/>
<path fill="#12935D" opacity="1.000000" stroke="none" 
	d="
M1861.545166,1230.247803 
	C1918.310303,1229.837036 1974.274902,1229.774536 2030.239502,1229.736938 
	C2031.217285,1229.736328 2032.195312,1230.038330 2034.198853,1230.367920 
	C2030.888916,1238.189087 2027.879639,1245.811401 2024.479004,1253.254883 
	C1996.427124,1314.656128 1961.727051,1372.018555 1918.932495,1424.270020 
	C1902.314453,1444.560425 1884.367065,1463.761108 1867.059326,1483.488159 
	C1864.499390,1486.405762 1861.620483,1487.770386 1857.540283,1487.752319 
	C1822.902100,1487.598022 1788.263062,1487.664062 1751.920776,1487.664062 
	C1753.380615,1484.026978 1754.461182,1481.147705 1755.679199,1478.327637 
	C1784.659180,1411.223267 1813.753052,1344.168091 1842.570557,1276.994141 
	C1849.115601,1261.737793 1854.711670,1246.074341 1861.545166,1230.247803 
z"/>
<path fill="#90BFD3" opacity="1.000000" stroke="none" 
	d="
M1998.055420,535.971191 
	C2011.870850,560.333191 2023.093384,585.099243 2034.111816,611.444214 
	C2030.145142,611.718994 2027.026733,612.120483 2023.907959,612.123169 
	C1977.271973,612.163513 1930.635864,612.158997 1883.999878,612.144958 
	C1873.935425,612.141968 1873.884766,612.123596 1870.586426,602.860413 
	C1850.834106,547.385986 1828.695679,492.887268 1803.885864,439.477722 
	C1792.117432,414.143250 1780.364746,388.801483 1768.643799,363.444977 
	C1767.567993,361.117584 1766.776001,358.658997 1765.478394,355.291321 
	C1768.772461,354.850708 1771.236206,354.240601 1773.701416,354.234406 
	C1801.016602,354.165863 1828.332764,354.293396 1855.646851,354.098328 
	C1860.695923,354.062317 1864.521973,355.297333 1867.920654,359.173645 
	C1878.214233,370.914062 1888.902100,382.308838 1899.194580,394.050171 
	C1927.529175,426.373169 1953.127197,460.745514 1975.577759,497.413025 
	C1983.216797,509.889252 1990.370728,522.662415 1998.055420,535.971191 
z"/>
<path fill="#90BFD3" opacity="1.000000" stroke="none" 
	d="
M654.000000,1229.848633 
	C673.296143,1229.848389 691.592285,1229.848389 709.674133,1229.848389 
	C709.883850,1230.388550 809.249146,1486.290161 809.570801,1487.118530 
	C806.484741,1487.361572 803.643127,1487.773682 800.800720,1487.779663 
	C776.153015,1487.830933 751.504700,1487.729980 726.857788,1487.876587 
	C721.957520,1487.905640 717.882812,1487.210205 714.413452,1483.205811 
	C704.844421,1472.161255 694.980103,1461.372437 685.219971,1450.493530 
	C655.829834,1417.734497 629.866943,1382.421509 606.660217,1345.057007 
	C584.685974,1309.676880 565.443909,1272.879272 549.393311,1234.432495 
	C549.027588,1233.556519 548.941895,1232.563721 548.784851,1231.882568 
	C548.993103,1231.269531 549.021545,1230.881714 549.228394,1230.662231 
	C549.436646,1230.441284 549.821899,1230.277954 550.130432,1230.276611 
	C584.420227,1230.122559 618.710083,1229.986206 654.000000,1229.848633 
z"/>
<path fill="#12935D" opacity="1.000000" stroke="none" 
	d="
M574.151978,554.148682 
	C594.806335,514.850586 617.347839,477.577240 643.583740,442.637543 
	C663.161682,416.564484 684.481079,391.973389 706.192017,367.626740 
	C716.035034,356.588776 726.053345,353.460205 739.805664,354.101288 
	C759.416321,355.015503 779.101440,354.333862 799.856018,354.333862 
	C781.740417,397.468628 763.231262,439.601593 746.315491,482.364838 
	C729.460754,524.973572 714.204468,568.214539 697.993713,611.861084 
	C648.937805,611.861084 599.025879,611.861084 547.907654,611.861084 
	C555.453735,591.985107 564.528198,573.351074 574.151978,554.148682 
z"/>
<path fill="#13935D" opacity="1.000000" stroke="none" 
	d="
M905.912537,213.836777 
	C948.052612,190.801407 991.374817,172.322647 1036.130737,157.166092 
	C1045.730103,153.915314 1055.497681,151.161591 1066.832397,147.672638 
	C1053.171265,209.686569 1039.865356,270.087555 1026.440430,331.029602 
	C963.684998,331.029602 901.263123,331.029602 838.323547,331.029602 
	C838.726318,329.206238 838.815674,327.208252 839.591309,325.526855 
	C854.196594,293.865326 868.788208,262.196320 883.692261,230.675293 
	C885.271606,227.335052 888.423096,224.415009 891.486267,222.177551 
	C895.751831,219.061813 900.622498,216.774353 905.912537,213.836777 
z"/>
<path fill="#90C0D3" opacity="1.000000" stroke="none" 
	d="
M1004.570374,1673.410400 
	C964.302490,1658.140015 926.106018,1640.305908 889.710999,1618.735962 
	C887.172546,1617.231567 884.876099,1614.266968 883.822449,1611.470703 
	C872.116211,1580.403687 860.656616,1549.243652 849.214294,1518.077881 
	C848.465942,1516.039429 848.403137,1513.749512 847.888733,1510.821777 
	C907.781616,1510.821777 966.848267,1510.821777 1026.421631,1510.821777 
	C1040.668823,1571.682617 1054.844727,1632.239136 1069.337891,1694.151245 
	C1046.974976,1689.761963 1026.269775,1681.263672 1004.570374,1673.410400 
z"/>
<path fill="#90C0D3" opacity="1.000000" stroke="none" 
	d="
M1529.356812,216.765747 
	C1523.471436,193.807968 1517.846924,171.637115 1512.035034,148.727966 
	C1514.717285,148.727966 1517.021362,148.221008 1519.005371,148.803955 
	C1549.325806,157.713196 1579.067139,168.279922 1608.014282,180.966415 
	C1623.845703,187.904831 1639.416016,195.438339 1655.133301,202.639526 
	C1659.497192,204.638931 1662.842651,207.338913 1665.115601,211.844360 
	C1683.705444,248.691544 1702.501465,285.434692 1721.192993,322.230621 
	C1722.370972,324.549561 1723.198486,327.046539 1724.544800,330.327972 
	C1721.835327,330.910736 1719.752808,331.746979 1717.669067,331.749969 
	C1666.043213,331.823395 1614.417114,331.839966 1562.791138,331.775787 
	C1555.080444,331.766205 1554.520142,331.197815 1552.633179,322.570496 
	C1548.380249,303.123779 1544.333252,283.631958 1540.085205,264.184143 
	C1536.685669,248.620728 1533.113159,233.095078 1529.356812,216.765747 
z"/>
<path fill="#13935E" opacity="1.000000" stroke="none" 
	d="
M1564.643555,1510.329956 
	C1614.766602,1510.329956 1663.962402,1510.329956 1714.654907,1510.329956 
	C1710.139404,1520.735229 1705.902954,1529.982178 1702.082031,1539.397705 
	C1690.100586,1568.922485 1678.192993,1598.478271 1666.491455,1628.114624 
	C1664.961670,1631.989624 1663.484985,1635.096558 1659.484375,1637.111816 
	C1614.000977,1660.021240 1567.084839,1679.296387 1518.097046,1693.383301 
	C1517.789673,1693.471558 1517.434814,1693.394165 1516.098022,1693.394165 
	C1516.345825,1690.905151 1516.344604,1688.420288 1516.865356,1686.050171 
	C1529.252563,1629.679810 1541.847046,1573.354004 1553.926636,1516.917969 
	C1555.343384,1510.299316 1558.752686,1509.984253 1564.643555,1510.329956 
z"/>
<path fill="#91C0D4" opacity="1.000000" stroke="none" 
	d="
M1697.980469,1613.984375 
	C1701.065674,1605.264526 1703.702026,1596.353638 1707.319946,1587.860718 
	C1718.251465,1562.198975 1729.563965,1536.699463 1740.899902,1510.742920 
	C1772.819458,1510.742920 1804.521362,1510.742920 1837.494507,1510.742920 
	C1835.629028,1513.040527 1834.631714,1514.663208 1833.273438,1515.884155 
	C1793.911621,1551.265869 1752.057983,1583.323242 1706.608032,1610.559082 
	C1704.340210,1611.918091 1701.854248,1612.913208 1698.735596,1614.039551 
	C1698.001587,1614.001587 1697.980469,1613.984375 1697.980469,1613.984375 
z"/>
<path fill="#169460" opacity="1.000000" stroke="none" 
	d="
M1733.813110,294.099426 
	C1722.979126,272.676819 1712.438110,251.939789 1701.758911,230.931198 
	C1722.145142,235.307709 1822.364746,311.463409 1836.761963,331.219910 
	C1808.604858,331.219910 1780.784912,331.219910 1752.450684,331.219910 
	C1746.368286,319.139404 1740.237061,306.962219 1733.813110,294.099426 
z"/>
<path fill="#189561" opacity="1.000000" stroke="none" 
	d="
M851.780151,1593.666626 
	C842.815430,1588.889648 833.968262,1583.685669 825.582886,1577.821411 
	C798.073730,1558.583130 772.412964,1537.020142 747.326721,1514.760864 
	C746.414856,1513.951660 745.827026,1512.777222 744.454895,1510.912231 
	C770.127258,1510.912231 794.834229,1510.912231 819.957581,1510.912231 
	C820.509888,1511.780640 821.403625,1512.792847 821.867859,1513.973877 
	C831.699341,1538.987549 841.490845,1564.016968 851.249756,1589.059082 
	C851.724915,1590.278320 851.831177,1591.641113 851.780151,1593.666626 
z"/>
<path fill="#92C1D4" opacity="1.000000" stroke="none" 
	d="
M828.333008,262.359406 
	C834.576050,257.974609 840.248840,254.025711 847.840820,248.740829 
	C846.655090,252.884918 846.336121,254.947067 845.501282,256.773376 
	C834.879761,280.010468 824.172180,303.208160 813.522888,326.432587 
	C812.240601,329.229034 811.056152,331.827209 807.267883,331.816742 
	C786.782288,331.760101 766.296509,331.789917 745.353699,330.814575 
	C770.995056,305.674011 798.463684,283.134705 828.333008,262.359406 
z"/>
<path fill="#91C0D4" opacity="1.000000" stroke="none" 
	d="
M1698.011719,1614.013672 
	C1697.810913,1614.081177 1697.599976,1614.136475 1697.684692,1614.088135 
	C1697.980469,1613.984375 1698.001587,1614.001587 1698.011719,1614.013672 
z"/>
</svg>