<svg version="1.1" id="Layer_1" xmlns="http://www.w3.org/2000/svg" xmlns:xlink="http://www.w3.org/1999/xlink" x="0px" y="0px"
	 width="100%" viewBox="0 0 2589 1836" enable-background="new 0 0 2589 1836" xml:space="preserve">
<path fill="none" opacity="0" stroke="none" 
	d="
M78.000000,2.000000 
	C915.840271,2.000000 1753.680542,2.000000 2592.000000,2.000000 
	C2592.000000,587.395081 2592.000000,1172.790283 2591.507812,1759.870972 
	C2589.423340,1759.703369 2587.441406,1758.063110 2586.298096,1755.965576 
	C2566.967041,1720.507446 2518.759521,1715.464600 2493.240479,1746.697144 
	C2487.725098,1753.447144 2484.270752,1761.881104 2479.425781,1770.306519 
	C2476.680664,1770.306519 2473.037109,1770.306641 2469.393555,1770.306641 
	C2306.082275,1770.306641 2142.770996,1770.306641 1979.459839,1770.306641 
	C1977.793335,1770.306641 1976.105225,1770.134033 1974.464722,1770.340576 
	C1970.458862,1770.844971 1967.534302,1769.343994 1964.872803,1766.354370 
	C1959.787476,1760.642578 1954.365845,1755.231812 1949.160889,1749.624512 
	C1927.900757,1726.720825 1906.669189,1703.790649 1885.427856,1680.869263 
	C1871.238159,1665.557129 1857.050049,1650.243530 1843.080200,1635.166992 
	C1868.514526,1612.958984 1893.749756,1590.924927 1919.162231,1568.736084 
	C1935.764893,1583.973999 1952.653198,1599.010010 1968.914185,1614.696655 
	C1973.470215,1619.092163 1977.872314,1620.460205 1983.856201,1620.450928 
	C2073.177246,1620.313477 2162.498535,1620.355957 2251.819824,1620.355957 
	C2255.441895,1620.355957 2259.063965,1620.355957 2262.448486,1620.355957 
	C2274.425537,1658.361084 2302.745605,1668.712646 2327.025146,1665.341553 
	C2352.453857,1661.811035 2373.569336,1638.690308 2374.354492,1614.713501 
	C2375.369873,1583.705444 2358.440674,1559.705322 2331.292480,1553.659302 
	C2318.210449,1550.745850 2305.558594,1551.821777 2293.541748,1557.971924 
	C2277.233154,1566.318726 2267.479492,1579.976807 2262.717285,1597.644043 
	C2258.529297,1597.644043 2254.888672,1597.644043 2251.248047,1597.644043 
	C2182.924072,1597.644043 2114.599854,1597.644165 2046.275879,1597.644043 
	C2027.945068,1597.644043 2009.612671,1597.516968 1991.284424,1597.736938 
	C1986.936401,1597.789185 1983.857544,1596.419189 1980.781616,1593.438721 
	C1972.429077,1585.345337 1963.556396,1577.784912 1955.282593,1569.615356 
	C1948.947754,1563.360229 1943.211548,1556.498779 1937.195068,1549.891724 
	C2266.475830,1209.674927 2272.283447,688.403381 1985.391968,343.633209 
	C1841.889282,171.179581 1658.863037,63.832687 1437.126587,27.325262 
	C1190.989258,-13.199605 965.359009,41.423313 759.629272,183.442703 
	C752.141174,175.169540 744.613403,166.797394 737.026123,158.479507 
	C705.891296,124.346130 674.686584,90.276260 643.645447,56.057911 
	C638.739929,50.650272 633.635071,48.085526 625.857727,48.098366 
	C459.547363,48.372936 293.236389,48.306744 126.925560,48.306744 
	C122.982384,48.306744 119.039200,48.306740 116.330070,48.306740 
	C112.282387,40.050472 109.437737,32.569515 105.191589,25.993513 
	C99.311905,16.887669 90.735336,10.513516 80.761330,6.131271 
	C79.015289,5.364121 75.711136,5.514213 78.000000,2.000000 
z"/>
<path fill="none" opacity="0" stroke="none" 
	d="
M2514.000000,1838.000000 
	C1676.826294,1838.000000 839.652527,1838.000000 2.000000,1838.000000 
	C2.000000,1251.271606 2.000000,664.543091 2.546100,76.141510 
	C4.622208,77.118591 6.421701,79.650688 7.641525,82.436600 
	C24.157326,120.156433 68.882332,125.335251 93.603630,105.156578 
	C104.340744,96.392448 111.196289,85.536880 114.887482,71.693565 
	C119.038811,71.693565 122.988800,71.693565 126.938797,71.693565 
	C254.597092,71.693565 382.255402,71.693565 509.913696,71.693565 
	C545.911316,71.693573 581.909668,71.801476 617.905884,71.579430 
	C623.422058,71.545403 627.064087,73.201599 630.607544,77.481880 
	C638.018799,86.434174 646.076965,94.854309 653.937988,103.430229 
	C676.626221,128.181732 699.377625,152.875381 722.038086,177.652252 
	C728.199585,184.389282 734.126953,191.340454 739.798340,197.780533 
	C714.266602,219.572418 689.583557,240.639954 664.388794,262.144287 
	C651.340149,250.010101 637.937073,238.069260 625.206238,225.450287 
	C620.114807,220.403625 615.212463,218.104446 607.862427,218.127258 
	C518.869080,218.403641 429.874634,218.306427 340.880463,218.306427 
	C337.305511,218.306427 333.730591,218.306427 330.569122,218.306427 
	C316.315521,184.909637 293.441559,169.745850 265.457092,174.664444 
	C238.071411,179.477798 220.058060,202.264709 218.295685,225.603180 
	C215.889481,257.467560 237.776398,279.492767 259.903839,284.947021 
	C271.948944,287.916077 284.360840,287.770782 296.132812,282.663055 
	C314.375641,274.747681 325.046967,260.210083 330.552216,241.694229 
	C332.716156,241.694229 334.038635,241.694229 335.361145,241.694229 
	C423.355377,241.694016 511.349579,241.693634 599.343811,241.694687 
	C601.010254,241.694702 602.716736,241.490509 604.331543,241.783798 
	C605.874817,242.064102 607.658936,242.500046 608.760864,243.501648 
	C621.706909,255.268417 634.544250,267.154694 647.537354,279.126587 
	C489.724976,440.880798 399.746094,633.450745 384.803467,858.507629 
	C369.847473,1083.766113 430.469879,1288.511597 568.066284,1467.775024 
	C717.505310,1662.467163 915.224915,1780.010498 1158.373779,1814.874023 
	C1401.391113,1849.718872 1623.497314,1791.930176 1823.427368,1649.505981 
	C1831.401855,1657.974976 1838.924805,1665.927124 1846.406372,1673.917969 
	C1861.407593,1689.939575 1876.429199,1705.942383 1891.363403,1722.026245 
	C1911.271851,1743.467041 1931.123779,1764.960449 1950.956543,1786.471436 
	C1955.643066,1791.554810 1960.879517,1793.878540 1968.219849,1793.868530 
	C2135.208740,1793.641357 2302.197754,1793.693848 2469.186768,1793.693848 
	C2473.127441,1793.693848 2477.067871,1793.693726 2481.023926,1793.693726 
	C2484.488770,1808.706543 2492.303467,1819.936768 2503.974609,1828.451660 
	C2507.168213,1830.781982 2510.897949,1832.369385 2514.190186,1834.582764 
	C2514.674072,1834.908081 2514.090088,1836.821411 2514.000000,1838.000000 
z"/>
<path fill="#F9F9F9" opacity="1.000000" stroke="none" 
	d="
M2514.937256,1838.000000 
	C2514.090088,1836.821411 2514.674072,1834.908081 2514.190186,1834.582764 
	C2510.897949,1832.369385 2507.168213,1830.781982 2503.974609,1828.451660 
	C2492.303467,1819.936768 2484.488770,1808.706543 2481.023926,1793.693726 
	C2477.067871,1793.693726 2473.127441,1793.693848 2469.186768,1793.693848 
	C2302.197754,1793.693848 2135.208740,1793.641357 1968.219849,1793.868530 
	C1960.879517,1793.878540 1955.643066,1791.554810 1950.956543,1786.471436 
	C1931.123779,1764.960449 1911.271851,1743.467041 1891.363403,1722.026245 
	C1876.429199,1705.942383 1861.407593,1689.939575 1846.406372,1673.917969 
	C1838.924805,1665.927124 1831.401855,1657.974976 1823.427368,1649.505981 
	C1623.497314,1791.930176 1401.391113,1849.718872 1158.373779,1814.874023 
	C915.224915,1780.010498 717.505310,1662.467163 568.066284,1467.775024 
	C430.469879,1288.511597 369.847473,1083.766113 384.803467,858.507629 
	C399.746094,633.450745 489.724976,440.880798 647.537354,279.126587 
	C634.544250,267.154694 621.706909,255.268417 608.760864,243.501648 
	C607.658936,242.500046 605.874817,242.064102 604.331543,241.783798 
	C602.716736,241.490509 601.010254,241.694702 599.343811,241.694687 
	C511.349579,241.693634 423.355377,241.694016 335.361145,241.694229 
	C334.038635,241.694229 332.716156,241.694229 330.552216,241.694229 
	C325.046967,260.210083 314.375641,274.747681 296.132812,282.663055 
	C284.360840,287.770782 271.948944,287.916077 259.903839,284.947021 
	C237.776398,279.492767 215.889481,257.467560 218.295685,225.603180 
	C220.058060,202.264709 238.071411,179.477798 265.457092,174.664444 
	C293.441559,169.745850 316.315521,184.909637 330.569122,218.306427 
	C333.730591,218.306427 337.305511,218.306427 340.880463,218.306427 
	C429.874634,218.306427 518.869080,218.403641 607.862427,218.127258 
	C615.212463,218.104446 620.114807,220.403625 625.206238,225.450287 
	C637.937073,238.069260 651.340149,250.010101 664.388794,262.144287 
	C689.583557,240.639954 714.266602,219.572418 739.798340,197.780533 
	C734.126953,191.340454 728.199585,184.389282 722.038086,177.652252 
	C699.377625,152.875381 676.626221,128.181732 653.937988,103.430229 
	C646.076965,94.854309 638.018799,86.434174 630.607544,77.481880 
	C627.064087,73.201599 623.422058,71.545403 617.905884,71.579430 
	C581.909668,71.801476 545.911316,71.693573 509.913696,71.693565 
	C382.255402,71.693565 254.597092,71.693565 126.938797,71.693565 
	C122.988800,71.693565 119.038811,71.693565 114.887482,71.693565 
	C111.196289,85.536880 104.340744,96.392448 93.603630,105.156578 
	C68.882332,125.335251 24.157326,120.156433 7.641525,82.436600 
	C6.421701,79.650688 4.622208,77.118591 2.546100,75.234253 
	C2.000000,65.290138 2.000000,54.580280 2.597387,43.513763 
	C4.161862,42.315201 5.625267,41.659729 6.021976,40.603584 
	C12.513576,23.321285 24.393393,11.486847 41.557850,4.800993 
	C42.001587,4.628150 41.865616,2.967040 42.000000,2.000000 
	C53.376080,2.000000 64.752159,2.000000 77.064117,2.000000 
	C75.711136,5.514213 79.015289,5.364121 80.761330,6.131271 
	C90.735336,10.513516 99.311905,16.887669 105.191589,25.993513 
	C109.437737,32.569515 112.282387,40.050472 116.330070,48.306740 
	C119.039200,48.306740 122.982384,48.306744 126.925560,48.306744 
	C293.236389,48.306744 459.547363,48.372936 625.857727,48.098366 
	C633.635071,48.085526 638.739929,50.650272 643.645447,56.057911 
	C674.686584,90.276260 705.891296,124.346130 737.026123,158.479507 
	C744.613403,166.797394 752.141174,175.169540 759.629272,183.442703 
	C965.359009,41.423313 1190.989258,-13.199605 1437.126587,27.325262 
	C1658.863037,63.832687 1841.889282,171.179581 1985.391968,343.633209 
	C2272.283447,688.403381 2266.475830,1209.674927 1937.195068,1549.891724 
	C1943.211548,1556.498779 1948.947754,1563.360229 1955.282593,1569.615356 
	C1963.556396,1577.784912 1972.429077,1585.345337 1980.781616,1593.438721 
	C1983.857544,1596.419189 1986.936401,1597.789185 1991.284424,1597.736938 
	C2009.612671,1597.516968 2027.945068,1597.644043 2046.275879,1597.644043 
	C2114.599854,1597.644165 2182.924072,1597.644043 2251.248047,1597.644043 
	C2254.888672,1597.644043 2258.529297,1597.644043 2262.717285,1597.644043 
	C2267.479492,1579.976807 2277.233154,1566.318726 2293.541748,1557.971924 
	C2305.558594,1551.821777 2318.210449,1550.745850 2331.292480,1553.659302 
	C2358.440674,1559.705322 2375.369873,1583.705444 2374.354492,1614.713501 
	C2373.569336,1638.690308 2352.453857,1661.811035 2327.025146,1665.341553 
	C2302.745605,1668.712646 2274.425537,1658.361084 2262.448486,1620.355957 
	C2259.063965,1620.355957 2255.441895,1620.355957 2251.819824,1620.355957 
	C2162.498535,1620.355957 2073.177246,1620.313477 1983.856201,1620.450928 
	C1977.872314,1620.460205 1973.470215,1619.092163 1968.914185,1614.696655 
	C1952.653198,1599.010010 1935.764893,1583.973999 1919.162231,1568.736084 
	C1893.749756,1590.924927 1868.514526,1612.958984 1843.080200,1635.166992 
	C1857.050049,1650.243530 1871.238159,1665.557129 1885.427856,1680.869263 
	C1906.669189,1703.790649 1927.900757,1726.720825 1949.160889,1749.624512 
	C1954.365845,1755.231812 1959.787476,1760.642578 1964.872803,1766.354370 
	C1967.534302,1769.343994 1970.458862,1770.844971 1974.464722,1770.340576 
	C1976.105225,1770.134033 1977.793335,1770.306641 1979.459839,1770.306641 
	C2142.770996,1770.306641 2306.082275,1770.306641 2469.393555,1770.306641 
	C2473.037109,1770.306641 2476.680664,1770.306519 2479.425781,1770.306519 
	C2484.270752,1761.881104 2487.725098,1753.447144 2493.240479,1746.697144 
	C2518.759521,1715.464600 2566.967041,1720.507446 2586.298096,1755.965576 
	C2587.441406,1758.063110 2589.423340,1759.703369 2591.507812,1760.778198 
	C2592.000000,1774.041870 2592.000000,1788.083862 2591.456055,1802.411133 
	C2590.607422,1802.824341 2590.146729,1802.865356 2590.021240,1803.092163 
	C2582.388916,1816.870117 2572.707031,1828.560181 2557.854492,1835.115112 
	C2557.539795,1835.254028 2557.935547,1837.002441 2558.000000,1838.000000 
	C2543.958008,1838.000000 2529.916260,1838.000000 2514.937256,1838.000000 
M982.191528,97.109665 
	C971.077271,101.513260 959.881714,105.723198 948.862366,110.352661 
	C888.239990,135.821381 831.106201,167.580978 777.664001,205.907333 
	C734.338745,236.978210 693.819397,271.332703 657.310547,310.256348 
	C642.077209,326.497192 626.695435,342.660950 612.434570,359.739380 
	C577.403015,401.692291 546.667847,446.683899 520.196838,494.526855 
	C490.340637,548.488159 466.162750,604.903992 448.343475,663.954712 
	C435.295746,707.193115 425.684204,751.182434 419.302155,795.961731 
	C414.192841,831.811096 411.684906,867.800781 410.511749,903.900024 
	C409.973145,920.474182 410.925354,937.122559 411.761261,953.708984 
	C412.745422,973.237915 414.082336,992.757629 415.717041,1012.243530 
	C419.162109,1053.308716 426.762390,1093.720825 436.819855,1133.605469 
	C454.684906,1204.452393 481.104004,1272.003418 515.853821,1336.368042 
	C566.663391,1430.479126 632.791870,1512.305054 713.278259,1582.396729 
	C780.922363,1641.304688 856.210205,1688.436035 938.548889,1724.274658 
	C1035.110962,1766.304321 1136.137573,1789.438110 1241.063965,1795.450562 
	C1278.904053,1797.618896 1316.863770,1797.043213 1354.719849,1793.931519 
	C1395.058350,1790.615723 1435.012695,1784.917969 1474.604126,1776.363037 
	C1539.483521,1762.343872 1601.862305,1741.081909 1661.829468,1712.744507 
	C1707.019653,1691.389771 1750.056885,1666.312134 1790.994385,1637.574097 
	C1851.735352,1594.933960 1906.119507,1545.318237 1954.348145,1489.005371 
	C2010.079102,1423.932861 2055.313232,1352.166504 2089.890625,1273.733032 
	C2113.802979,1219.491455 2131.955566,1163.441040 2144.569824,1105.465454 
	C2154.604492,1059.344360 2160.862061,1012.754395 2163.378906,965.755554 
	C2165.191162,931.918213 2165.695312,897.933228 2162.340820,864.064575 
	C2160.251709,842.970642 2158.815430,821.800293 2156.230469,800.769409 
	C2149.490234,745.932495 2136.750732,692.381104 2119.081055,640.100952 
	C2089.050781,551.248596 2046.043945,469.105530 1989.627319,394.080322 
	C1961.614746,356.828094 1931.322998,321.569794 1897.159790,289.794159 
	C1879.153320,273.046051 1861.236206,256.125122 1842.290405,240.478851 
	C1799.115479,204.822968 1752.693237,173.916962 1703.328003,147.348251 
	C1651.950928,119.696754 1598.498169,97.174698 1542.680542,80.296074 
	C1499.758911,67.317017 1456.093384,57.841091 1411.658325,51.405018 
	C1377.134888,46.404575 1342.465210,44.021927 1307.722168,42.554005 
	C1289.833252,41.798183 1271.853760,43.474674 1253.911743,43.621815 
	C1222.994751,43.875366 1192.402954,47.442196 1161.831055,51.635803 
	C1100.763062,60.012646 1041.544067,75.627228 982.191528,97.109665 
M75.861099,30.695084 
	C66.303673,25.187351 56.416241,24.424391 46.370289,29.073565 
	C33.008774,35.257153 26.781586,46.714218 27.695957,63.313824 
	C28.788013,83.139114 49.595005,99.462227 72.033997,90.046448 
	C98.597107,78.900131 96.850395,42.892391 75.861099,30.695084 
M2298.373535,1583.088257 
	C2290.312744,1590.321777 2285.842285,1598.980591 2286.253174,1610.187744 
	C2286.777344,1624.491577 2295.997070,1636.754761 2310.143311,1640.899414 
	C2322.959717,1644.654541 2338.494873,1638.597412 2345.723145,1627.026733 
	C2353.065186,1615.274048 2351.905518,1597.976440 2343.424072,1587.883789 
	C2333.258301,1575.786865 2314.975342,1571.589722 2298.373535,1583.088257 
M242.601349,237.491211 
	C245.394363,248.100784 251.616028,256.265656 261.775818,260.188141 
	C286.893860,269.885681 308.451996,250.296890 306.592560,228.711334 
	C305.457367,215.533386 299.224670,206.590210 288.272522,201.262772 
	C276.796967,195.680740 265.002960,196.790253 254.611298,204.952179 
	C244.591354,212.822159 241.083542,223.422348 242.601349,237.491211 
M2530.027344,1814.232300 
	C2531.688965,1814.265259 2533.383301,1814.098633 2535.007568,1814.362061 
	C2552.460693,1817.192627 2569.700928,1799.355591 2568.773193,1781.075562 
	C2568.111084,1768.025269 2556.834229,1752.856445 2542.241211,1750.448364 
	C2526.808105,1747.901733 2511.408203,1756.711914 2506.202637,1770.803223 
	C2499.933105,1787.774780 2507.939453,1808.000610 2530.027344,1814.232300 
z"/>
<path fill="none" opacity="0" stroke="none" 
	d="
M41.061913,2.000000 
	C41.865616,2.967040 42.001587,4.628150 41.557850,4.800993 
	C24.393393,11.486847 12.513576,23.321285 6.021976,40.603584 
	C5.625267,41.659729 4.161862,42.315201 2.597387,42.578552 
	C2.000000,28.814545 2.000000,15.629088 2.000000,2.000000 
	C14.704501,2.000000 27.414165,2.000000 41.061913,2.000000 
z"/>
<path fill="none" opacity="0" stroke="none" 
	d="
M2558.940918,1838.000000 
	C2557.935547,1837.002441 2557.539795,1835.254028 2557.854492,1835.115112 
	C2572.707031,1828.560181 2582.388916,1816.870117 2590.021240,1803.092163 
	C2590.146729,1802.865356 2590.607422,1802.824341 2591.456055,1803.348389 
	C2592.000000,1815.184204 2592.000000,1826.368286 2592.000000,1838.000000 
	C2581.298096,1838.000000 2570.590088,1838.000000 2558.940918,1838.000000 
z"/>
<path fill="none" opacity="0" stroke="none" 
	d="
M982.911987,96.799561 
	C1041.544067,75.627228 1100.763062,60.012646 1161.831055,51.635803 
	C1192.402954,47.442196 1222.994751,43.875366 1253.911743,43.621815 
	C1271.853760,43.474674 1289.833252,41.798183 1307.722168,42.554005 
	C1342.465210,44.021927 1377.134888,46.404575 1411.658325,51.405018 
	C1456.093384,57.841091 1499.758911,67.317017 1542.680542,80.296074 
	C1598.498169,97.174698 1651.950928,119.696754 1703.328003,147.348251 
	C1752.693237,173.916962 1799.115479,204.822968 1842.290405,240.478851 
	C1861.236206,256.125122 1879.153320,273.046051 1897.159790,289.794159 
	C1931.322998,321.569794 1961.614746,356.828094 1989.627319,394.080322 
	C2046.043945,469.105530 2089.050781,551.248596 2119.081055,640.100952 
	C2136.750732,692.381104 2149.490234,745.932495 2156.230469,800.769409 
	C2158.815430,821.800293 2160.251709,842.970642 2162.340820,864.064575 
	C2165.695312,897.933228 2165.191162,931.918213 2163.378906,965.755554 
	C2160.862061,1012.754395 2154.604492,1059.344360 2144.569824,1105.465454 
	C2131.955566,1163.441040 2113.802979,1219.491455 2089.890625,1273.733032 
	C2055.313232,1352.166504 2010.079102,1423.932861 1954.348145,1489.005371 
	C1906.119507,1545.318237 1851.735352,1594.933960 1790.994385,1637.574097 
	C1750.056885,1666.312134 1707.019653,1691.389771 1661.829468,1712.744507 
	C1601.862305,1741.081909 1539.483521,1762.343872 1474.604126,1776.363037 
	C1435.012695,1784.917969 1395.058350,1790.615723 1354.719849,1793.931519 
	C1316.863770,1797.043213 1278.904053,1797.618896 1241.063965,1795.450562 
	C1136.137573,1789.438110 1035.110962,1766.304321 938.548889,1724.274658 
	C856.210205,1688.436035 780.922363,1641.304688 713.278259,1582.396729 
	C632.791870,1512.305054 566.663391,1430.479126 515.853821,1336.368042 
	C481.104004,1272.003418 454.684906,1204.452393 436.819855,1133.605469 
	C426.762390,1093.720825 419.162109,1053.308716 415.717041,1012.243530 
	C414.082336,992.757629 412.745422,973.237915 411.761261,953.708984 
	C410.925354,937.122559 409.973145,920.474182 410.511749,903.900024 
	C411.684906,867.800781 414.192841,831.811096 419.302155,795.961731 
	C425.684204,751.182434 435.295746,707.193115 448.343475,663.954712 
	C466.162750,604.903992 490.340637,548.488159 520.196838,494.526855 
	C546.667847,446.683899 577.403015,401.692291 612.434570,359.739380 
	C626.695435,342.660950 642.077209,326.497192 657.310547,310.256348 
	C693.819397,271.332703 734.338745,236.978210 777.664001,205.907333 
	C831.106201,167.580978 888.239990,135.821381 948.862366,110.352661 
	C959.881714,105.723198 971.077271,101.513260 982.911987,96.799561 
M871.490845,1631.580444 
	C897.473816,1644.976196 923.029236,1659.294922 949.530457,1671.572021 
	C1001.826965,1695.798950 1056.540771,1713.099854 1112.829346,1725.494141 
	C1158.921509,1735.643311 1205.624146,1741.646973 1252.675903,1743.374512 
	C1295.824097,1744.958618 1339.011353,1743.862915 1382.048584,1738.547729 
	C1413.353394,1734.681641 1444.372925,1729.600708 1475.065430,1722.454102 
	C1544.996948,1706.171143 1611.610107,1681.128052 1675.031250,1647.378174 
	C1740.015503,1612.796265 1799.054810,1569.990601 1852.651733,1519.717163 
	C1889.597778,1485.062134 1923.038452,1447.164551 1952.985107,1406.261353 
	C1987.279541,1359.419678 2016.325562,1309.539429 2040.103638,1256.539917 
	C2063.573486,1204.227173 2081.137695,1150.029541 2093.513916,1094.097290 
	C2103.708984,1048.022949 2109.645264,1001.305420 2111.364502,954.250977 
	C2112.685791,918.086609 2112.013428,881.854004 2108.630859,845.647888 
	C2105.137939,808.254761 2099.676758,771.241089 2091.261230,734.735840 
	C2071.483154,648.943359 2038.891357,568.219971 1993.234009,492.867767 
	C1951.045044,423.239532 1899.376465,361.362244 1839.104614,306.778687 
	C1803.825928,274.829651 1765.940552,246.138077 1725.541016,220.837524 
	C1661.786133,180.910400 1593.870483,150.235107 1521.792480,128.750107 
	C1462.443726,111.059433 1401.788818,99.980194 1340.040894,96.660088 
	C1294.256226,94.198311 1248.360840,94.510864 1202.547119,99.423744 
	C1167.857666,103.143654 1133.475830,108.426727 1099.612915,116.448311 
	C997.638672,140.604309 903.307068,182.171799 817.268066,242.256790 
	C758.604919,283.223938 706.065430,330.923340 659.632935,385.336426 
	C611.232361,442.055847 571.317566,504.201172 539.772949,571.818481 
	C496.045990,665.549072 471.131500,764.107300 464.636230,867.130798 
	C462.253448,904.924561 462.540100,942.911987 465.464996,980.837952 
	C467.915558,1012.612976 471.757172,1044.132935 477.791931,1075.397339 
	C493.450287,1156.519287 520.606628,1233.528564 559.440125,1306.530396 
	C606.357788,1394.729004 667.639832,1471.440674 742.226318,1537.661011 
	C781.865295,1572.853638 824.482178,1604.006592 871.490845,1631.580444 
z"/>
<path fill="none" opacity="0" stroke="none" 
	d="
M76.463478,31.146786 
	C96.850395,42.892391 98.597107,78.900131 72.033997,90.046448 
	C49.595005,99.462227 28.788013,83.139114 27.695957,63.313824 
	C26.781586,46.714218 33.008774,35.257153 46.370289,29.073565 
	C56.416241,24.424391 66.303673,25.187351 76.463478,31.146786 
z"/>
<path fill="none" opacity="0" stroke="none" 
	d="
M2298.958008,1582.625000 
	C2314.975342,1571.589722 2333.258301,1575.786865 2343.424072,1587.883789 
	C2351.905518,1597.976440 2353.065186,1615.274048 2345.723145,1627.026733 
	C2338.494873,1638.597412 2322.959717,1644.654541 2310.143311,1640.899414 
	C2295.997070,1636.754761 2286.777344,1624.491577 2286.253174,1610.187744 
	C2285.842285,1598.980591 2290.312744,1590.321777 2298.958008,1582.625000 
z"/>
<path fill="none" opacity="0" stroke="none" 
	d="
M242.482971,236.669312 
	C241.083542,223.422348 244.591354,212.822159 254.611298,204.952179 
	C265.002960,196.790253 276.796967,195.680740 288.272522,201.262772 
	C299.224670,206.590210 305.457367,215.533386 306.592560,228.711334 
	C308.451996,250.296890 286.893860,269.885681 261.775818,260.188141 
	C251.616028,256.265656 245.394363,248.100784 242.482971,236.669312 
z"/>
<path fill="none" opacity="0" stroke="none" 
	d="
M2529.187256,1814.103760 
	C2507.939453,1808.000610 2499.933105,1787.774780 2506.202637,1770.803223 
	C2511.408203,1756.711914 2526.808105,1747.901733 2542.241211,1750.448364 
	C2556.834229,1752.856445 2568.111084,1768.025269 2568.773193,1781.075562 
	C2569.700928,1799.355591 2552.460693,1817.192627 2535.007568,1814.362061 
	C2533.383301,1814.098633 2531.688965,1814.265259 2529.187256,1814.103760 
z"/>
<path fill="#F8FBFA" opacity="1.000000" stroke="none" 
	d="
M870.894287,1631.154541 
	C824.482178,1604.006592 781.865295,1572.853638 742.226318,1537.661011 
	C667.639832,1471.440674 606.357788,1394.729004 559.440125,1306.530396 
	C520.606628,1233.528564 493.450287,1156.519287 477.791931,1075.397339 
	C471.757172,1044.132935 467.915558,1012.612976 465.464996,980.837952 
	C462.540100,942.911987 462.253448,904.924561 464.636230,867.130798 
	C471.131500,764.107300 496.045990,665.549072 539.772949,571.818481 
	C571.317566,504.201172 611.232361,442.055847 659.632935,385.336426 
	C706.065430,330.923340 758.604919,283.223938 817.268066,242.256790 
	C903.307068,182.171799 997.638672,140.604309 1099.612915,116.448311 
	C1133.475830,108.426727 1167.857666,103.143654 1202.547119,99.423744 
	C1248.360840,94.510864 1294.256226,94.198311 1340.040894,96.660088 
	C1401.788818,99.980194 1462.443726,111.059433 1521.792480,128.750107 
	C1593.870483,150.235107 1661.786133,180.910400 1725.541016,220.837524 
	C1765.940552,246.138077 1803.825928,274.829651 1839.104614,306.778687 
	C1899.376465,361.362244 1951.045044,423.239532 1993.234009,492.867767 
	C2038.891357,568.219971 2071.483154,648.943359 2091.261230,734.735840 
	C2099.676758,771.241089 2105.137939,808.254761 2108.630859,845.647888 
	C2112.013428,881.854004 2112.685791,918.086609 2111.364502,954.250977 
	C2109.645264,1001.305420 2103.708984,1048.022949 2093.513916,1094.097290 
	C2081.137695,1150.029541 2063.573486,1204.227173 2040.103638,1256.539917 
	C2016.325562,1309.539429 1987.279541,1359.419678 1952.985107,1406.261353 
	C1923.038452,1447.164551 1889.597778,1485.062134 1852.651733,1519.717163 
	C1799.054810,1569.990601 1740.015503,1612.796265 1675.031250,1647.378174 
	C1611.610107,1681.128052 1544.996948,1706.171143 1475.065430,1722.454102 
	C1444.372925,1729.600708 1413.353394,1734.681641 1382.048584,1738.547729 
	C1339.011353,1743.862915 1295.824097,1744.958618 1252.675903,1743.374512 
	C1205.624146,1741.646973 1158.921509,1735.643311 1112.829346,1725.494141 
	C1056.540771,1713.099854 1001.826965,1695.798950 949.530457,1671.572021 
	C923.029236,1659.294922 897.473816,1644.976196 870.894287,1631.154541 
M852.709839,236.427856 
	C812.826416,260.205109 739.657227,318.788208 731.531311,333.550537 
	C758.057251,333.550537 784.480225,333.550537 810.626099,333.550537 
	C822.710022,307.708008 834.654297,282.506287 846.247314,257.143982 
	C849.361816,250.330185 851.406921,243.027542 854.564331,235.924088 
	C854.386414,235.963348 854.208496,236.002625 852.709839,236.427856 
M1533.000000,926.211121 
	C1454.397339,926.400269 1375.794800,926.588989 1297.192139,926.794556 
	C1296.889404,926.795349 1296.559692,926.999695 1296.292236,927.182007 
	C1296.021729,927.366455 1295.813354,927.641907 1294.210938,929.243958 
	C1294.210938,946.404358 1294.210938,964.962219 1294.210938,983.520081 
	C1294.210938,1002.510010 1294.210938,1021.499939 1294.210938,1040.489868 
	C1294.210938,1059.146606 1294.210938,1077.803467 1294.210938,1096.460205 
	C1294.210938,1115.450195 1294.048584,1134.441895 1294.257202,1153.429565 
	C1294.460083,1171.896362 1293.337158,1190.421753 1294.903809,1208.575562 
	C1309.143433,1210.889160 1578.612183,1210.172852 1585.351562,1208.025879 
	C1598.606812,1130.538208 1609.956055,951.795044 1604.700806,927.299194 
	C1604.115112,927.027466 1603.530762,926.521240 1602.943481,926.517761 
	C1580.295776,926.387085 1557.647949,926.302368 1533.000000,926.211121 
M1262.885864,1209.642334 
	C1268.441650,1209.642334 1273.997437,1209.642334 1279.648682,1209.642334 
	C1279.648682,1114.670410 1279.648682,1020.923218 1279.648682,927.253540 
	C1263.110474,925.247620 976.894592,925.957153 969.234314,928.155518 
	C969.855835,1022.168640 980.172180,1115.527100 992.508301,1209.642212 
	C1082.517578,1209.642212 1171.714233,1209.642212 1262.885864,1209.642334 
M1033.000244,629.879211 
	C1018.740356,629.879211 1004.480469,629.879211 989.305420,629.879211 
	C976.780151,723.893677 968.613831,817.203369 969.383423,911.474121 
	C1072.817749,911.474121 1175.878296,911.474121 1278.814453,911.474121 
	C1280.873413,900.645691 1280.545166,638.268311 1278.338989,629.878967 
	C1197.393677,629.878967 1116.196899,629.878967 1033.000244,629.879211 
M1307.206543,912.292358 
	C1406.434448,912.292358 1505.662354,912.292358 1606.034424,912.292358 
	C1604.869995,817.028625 1594.984375,723.632751 1582.587524,630.331421 
	C1486.179199,630.331421 1390.696167,630.331421 1294.932373,630.331421 
	C1294.932373,724.436462 1294.932373,817.916809 1294.932373,912.292419 
	C1298.738647,912.292419 1302.005249,912.292419 1307.206543,912.292358 
M700.325073,661.507874 
	C699.852295,663.446716 699.441772,665.403198 698.897461,667.321716 
	C687.719910,706.715759 678.573425,746.617493 672.612976,787.090332 
	C668.017029,818.298584 665.451172,849.819580 662.526184,881.252075 
	C661.586243,891.352356 662.378845,901.613831 662.378845,911.663696 
	C760.025452,911.663696 856.829041,911.663696 952.873291,911.663696 
	C955.197327,864.190308 956.611511,817.319397 960.026550,770.594666 
	C963.450500,723.748291 968.870789,677.047913 973.428284,630.157959 
	C885.306396,630.157959 797.768433,630.157959 709.725159,630.157959 
	C706.687744,640.259338 703.728699,650.099731 700.325073,661.507874 
M936.880493,926.211548 
	C845.667542,926.211548 754.454651,926.211548 662.885193,926.211548 
	C661.041565,936.237122 662.985107,945.010254 663.531250,953.872742 
	C665.128479,979.789673 668.789307,1005.372742 673.485413,1030.900146 
	C684.219177,1089.246948 700.668213,1146.031616 718.825439,1202.400757 
	C720.749146,1208.372803 723.839722,1210.059814 729.678528,1209.891724 
	C741.665161,1209.546631 753.668701,1209.788330 765.665283,1209.788330 
	C832.312866,1209.788452 898.960388,1209.802490 965.607971,1209.751343 
	C969.393677,1209.748535 973.178955,1209.211670 977.427490,1208.888062 
	C975.977661,1196.083374 974.746460,1184.576294 973.357788,1173.088379 
	C971.007019,1153.639648 968.304077,1134.229980 966.224426,1114.753174 
	C964.390320,1097.575806 963.063354,1080.339844 961.766663,1063.110596 
	C959.746826,1036.273193 957.738098,1009.431885 956.119995,982.568359 
	C955.080139,965.304199 954.767761,947.996582 954.061829,930.711121 
	C954.011597,929.482056 953.404968,928.275696 952.814880,926.211975 
	C948.025024,926.211975 943.428711,926.211975 936.880493,926.211548 
M1619.635132,859.609802 
	C1619.897949,876.804993 1620.160645,894.000244 1620.428101,911.503784 
	C1716.715454,911.503784 1811.784302,911.503784 1907.423096,911.503784 
	C1907.662720,908.382324 1908.126709,905.789917 1908.012085,903.223267 
	C1907.552612,892.937012 1907.287598,882.621521 1906.266846,872.385010 
	C1903.797852,847.625427 1901.599487,822.811584 1898.114868,798.186096 
	C1890.412231,743.753052 1876.083618,690.858643 1859.338989,638.588562 
	C1856.555298,629.899048 1856.413574,629.889404 1846.575928,629.887512 
	C1766.980713,629.872070 1687.385498,629.872925 1607.790283,629.902588 
	C1604.872681,629.903687 1601.955078,630.252991 1598.527588,630.472717 
	C1598.527588,634.253784 1598.187500,637.510376 1598.583618,640.674744 
	C1600.891846,659.112793 1603.697021,677.493774 1605.713379,695.961853 
	C1608.199585,718.734131 1610.296753,741.554871 1612.162354,764.387390 
	C1614.380005,791.528198 1616.151978,818.705200 1618.173096,845.862305 
	C1618.468506,849.830444 1619.075439,853.775269 1619.635132,859.609802 
M1618.312500,1013.597839 
	C1618.162476,1018.591492 1618.194458,1023.598328 1617.831787,1028.576538 
	C1616.019043,1053.454834 1614.372070,1078.349609 1612.145508,1103.191895 
	C1610.008545,1127.034424 1607.263672,1150.822876 1604.723755,1174.628540 
	C1603.508179,1186.022705 1602.149170,1197.401489 1600.800049,1209.272095 
	C1682.302002,1209.272095 1762.554565,1209.272095 1842.768677,1209.272095 
	C1843.409302,1208.190796 1844.000122,1207.393311 1844.383667,1206.506348 
	C1845.308350,1204.367798 1846.218018,1202.216187 1846.991333,1200.019775 
	C1869.891235,1134.975708 1890.434814,1069.260132 1900.721802,1000.854126 
	C1904.029541,978.858276 1905.541016,956.589905 1907.732788,934.432251 
	C1907.976929,931.964172 1907.290649,929.404114 1907.051392,927.040894 
	C1885.852173,925.038330 1628.096802,925.917603 1620.264893,928.136047 
	C1620.264893,935.565125 1620.436646,943.201355 1620.231689,950.827393 
	C1619.686035,971.125488 1618.978394,991.419189 1618.312500,1013.597839 
M1280.289185,578.998657 
	C1280.146851,502.751404 1280.005127,426.504120 1279.841675,350.256897 
	C1279.841064,349.988953 1279.559570,349.692230 1279.350708,349.462128 
	C1279.129761,349.218781 1278.838623,349.039185 1278.690796,348.921539 
	C1198.772705,348.921539 1118.968628,348.921539 1038.807983,348.921539 
	C1020.444153,437.382172 1003.742004,525.630493 991.504578,615.150024 
	C1088.350708,615.150024 1183.785889,615.150024 1280.289307,615.150024 
	C1280.289307,603.448120 1280.289307,592.222717 1280.289185,578.998657 
M1539.814819,1472.695190 
	C1556.604126,1390.410645 1571.983032,1307.881958 1583.489258,1224.191162 
	C1486.984497,1224.191162 1391.210327,1224.191162 1295.061646,1224.191162 
	C1295.061646,1313.027710 1295.061646,1401.379028 1295.061646,1489.946655 
	C1375.626831,1489.946655 1455.496826,1489.946655 1535.900635,1489.946655 
	C1537.152832,1484.618652 1538.356323,1479.497314 1539.814819,1472.695190 
M1294.210449,557.000000 
	C1294.598511,576.176208 1293.390625,595.401123 1294.987549,615.068970 
	C1390.412354,615.068970 1484.858276,615.068970 1579.813843,615.068970 
	C1579.813843,612.054626 1580.092407,609.721313 1579.769897,607.474182 
	C1577.127441,589.060852 1574.623413,570.622253 1571.600220,552.269897 
	C1565.229492,513.596069 1558.778442,474.932922 1551.954956,436.337036 
	C1547.270386,409.839478 1542.007446,383.442047 1536.782593,357.043518 
	C1535.061890,348.349854 1534.746338,348.243286 1526.666870,348.238556 
	C1452.001587,348.194946 1377.336304,348.203003 1302.671021,348.263580 
	C1300.156494,348.265625 1297.642456,348.981537 1294.210938,349.504456 
	C1294.210938,418.462219 1294.210938,486.731110 1294.210449,557.000000 
M1115.000000,1490.120850 
	C1169.298218,1489.952515 1223.596558,1489.784790 1277.894653,1489.593262 
	C1278.161621,1489.592285 1278.442749,1489.271118 1278.688965,1489.065796 
	C1278.943848,1488.853271 1279.164551,1488.599854 1279.423706,1488.340820 
	C1279.423706,1400.561157 1279.423706,1312.759766 1279.423706,1224.438110 
	C1184.266235,1224.438110 1089.805908,1224.438110 995.321899,1224.438110 
	C996.799133,1259.204956 1034.480347,1476.575562 1041.594482,1490.121094 
	C1065.102051,1490.121094 1089.051025,1490.121094 1115.000000,1490.120850 
M1010.297546,415.363922 
	C1014.785828,393.367676 1019.274109,371.371399 1023.856140,348.915558 
	C1021.131042,348.596649 1019.515015,348.242859 1017.898804,348.242096 
	C954.243713,348.212646 890.588379,348.282593 826.933777,348.098877 
	C821.218262,348.082367 818.930054,350.459229 816.828247,355.395355 
	C803.400818,386.929626 789.398560,418.219360 775.998657,449.765076 
	C754.130615,501.246063 734.272766,553.494690 717.320496,606.818604 
	C716.557007,609.220215 716.276917,611.775513 715.460449,615.789185 
	C720.159424,615.789185 723.705200,615.789185 727.250916,615.789185 
	C806.569824,615.789185 885.888794,615.789185 965.207703,615.788940 
	C966.540771,615.788940 967.875916,615.833191 969.206543,615.775757 
	C976.119324,615.477173 976.859558,614.720459 977.910095,607.648315 
	C980.544861,589.910522 982.914490,572.125916 985.955811,554.457397 
	C993.843811,508.632385 1002.036194,462.859741 1010.297546,415.363922 
M1675.000000,348.355011 
	C1633.793823,348.355011 1592.587646,348.355011 1551.458984,348.355011 
	C1566.681152,438.022034 1581.719971,526.609131 1596.750854,615.149963 
	C1622.867920,617.057007 1842.210327,616.146179 1850.588623,613.964478 
	C1849.757202,611.136475 1849.059570,608.277527 1848.084473,605.516602 
	C1817.673340,519.426086 1779.806885,436.556152 1739.848145,354.579529 
	C1737.392578,349.541656 1734.280396,348.146057 1728.971313,348.240204 
	C1711.652344,348.547394 1694.324463,348.355164 1675.000000,348.355011 
M763.002014,1223.707886 
	C751.247498,1224.134766 739.418457,1222.830688 727.597168,1224.431641 
	C731.945190,1247.226074 818.999146,1470.655273 830.811829,1489.743652 
	C853.259521,1491.678345 1016.835205,1490.764893 1023.234619,1488.875366 
	C1008.276367,1400.728882 993.333008,1312.670166 978.236267,1223.707764 
	C907.487671,1223.707764 836.244263,1223.707764 763.002014,1223.707886 
M1667.000000,1490.121704 
	C1686.284302,1490.121704 1705.568604,1490.121704 1725.057251,1490.121704 
	C1764.868042,1402.229736 1804.341797,1315.027100 1837.879639,1225.036133 
	C1824.196899,1222.821655 1605.413330,1223.504761 1598.525635,1225.642334 
	C1593.793335,1255.103638 1589.276978,1284.649658 1584.250488,1314.108887 
	C1579.277832,1343.252441 1573.903198,1372.329102 1568.496704,1401.396362 
	C1563.066650,1430.590332 1557.379761,1459.736572 1551.572632,1490.121948 
	C1590.466309,1490.121948 1627.733154,1490.121948 1667.000000,1490.121704 
M2071.674805,1122.467529 
	C2078.550537,1094.039917 2084.688721,1065.491333 2088.666992,1036.464722 
	C2092.460693,1008.782471 2095.891357,981.111084 2096.229248,953.132874 
	C2096.297607,947.471497 2096.248047,941.788208 2096.736572,936.156921 
	C2097.568115,926.568176 2097.600098,926.250366 2088.525635,926.240479 
	C2035.876831,926.182983 1983.227905,926.198120 1930.579224,926.263977 
	C1928.059570,926.267151 1925.540771,926.982178 1923.081177,927.356628 
	C1922.660156,929.425781 1922.177246,930.708130 1922.171021,931.992737 
	C1922.067627,953.661621 1919.274292,975.055481 1916.201782,996.465942 
	C1910.286255,1037.687012 1900.824951,1078.102539 1888.817627,1117.903564 
	C1880.461548,1145.602051 1871.028320,1172.975464 1862.123779,1200.509399 
	C1861.264282,1203.167236 1860.742798,1205.934448 1859.887573,1209.358643 
	C1921.750854,1209.358643 1982.306152,1209.358643 2043.476685,1209.358643 
	C2054.984863,1181.571777 2063.460449,1152.932495 2071.674805,1122.467529 
M480.193817,982.537598 
	C486.572479,1060.501831 503.051727,1136.150391 531.313538,1209.084595 
	C589.543396,1209.084595 646.994202,1209.084595 705.757385,1209.084595 
	C675.952759,1116.509155 650.338196,1023.898010 647.157959,926.965942 
	C624.008057,925.080994 485.935455,925.911560 477.585815,928.169678 
	C478.436981,945.502991 479.299988,963.077881 480.193817,982.537598 
M1901.683105,737.283203 
	C1914.299316,794.783203 1922.428955,852.853149 1922.596069,912.294189 
	C1981.320068,912.288452 2038.786743,912.301697 2096.814697,912.284912 
	C2096.272461,813.956543 2078.178711,720.547852 2043.975708,630.304321 
	C1986.410645,630.304321 1929.613403,630.304321 1873.195312,630.304321 
	C1882.681885,665.725769 1892.043457,700.680420 1901.683105,737.283203 
M664.127319,751.073975 
	C673.649353,711.075500 683.171326,671.077026 692.825562,630.523193 
	C639.041382,630.523193 585.000671,630.523193 530.951965,630.523193 
	C513.464294,675.847473 500.508942,721.815186 491.839142,769.011292 
	C483.206573,816.004883 477.952362,863.281982 477.932373,911.463806 
	C535.161011,911.463806 590.910156,911.463806 646.940308,911.463806 
	C647.299744,909.625366 647.766052,908.365540 647.759766,907.108093 
	C647.606140,876.483276 649.775024,846.005920 654.062012,815.704163 
	C657.035889,794.684265 660.618835,773.750610 664.127319,751.073975 
M1373.547119,1724.379639 
	C1412.895386,1720.751343 1451.605835,1713.785645 1489.275146,1703.546875 
	C1494.199829,1681.851440 1498.929810,1661.468994 1503.442383,1641.038696 
	C1512.898071,1598.228882 1522.264404,1555.399170 1531.561035,1512.554565 
	C1532.077148,1510.176025 1531.627808,1507.587891 1531.627808,1505.236084 
	C1516.029297,1503.073975 1302.509033,1503.828491 1294.209717,1506.331787 
	C1294.209717,1509.494263 1294.209839,1513.060303 1294.209839,1516.626343 
	C1294.209839,1583.578003 1294.209473,1650.529785 1294.210938,1717.481445 
	C1294.210938,1719.479980 1294.254150,1721.478638 1294.232910,1723.476929 
	C1294.182495,1728.241333 1296.491699,1729.708130 1301.174194,1729.424072 
	C1313.120483,1728.699463 1325.109497,1728.658325 1337.050537,1727.873779 
	C1348.637085,1727.112549 1360.185181,1725.766235 1373.547119,1724.379639 
M1068.877686,209.947662 
	C1059.914917,250.942368 1050.952148,291.937073 1041.968872,333.025604 
	C1058.260010,335.301331 1272.566895,334.515289 1279.471191,332.339417 
	C1279.471191,258.596741 1279.471191,184.835358 1279.471191,110.505470 
	C1275.953491,110.288902 1273.031616,109.850250 1270.134644,109.976982 
	C1259.519653,110.441368 1248.919312,111.344322 1238.301514,111.626190 
	C1211.680420,112.332870 1185.312378,115.590889 1159.138306,120.073502 
	C1136.584717,123.936066 1114.272339,129.191498 1091.793335,133.519638 
	C1087.042969,134.434265 1085.064941,136.848923 1084.121338,141.229034 
	C1079.296753,163.623795 1074.334106,185.988800 1068.877686,209.947662 
M1392.247192,116.335159 
	C1370.061523,114.370010 1347.895020,112.133179 1325.681519,110.561630 
	C1315.543701,109.844406 1305.312988,110.439720 1295.072266,110.439720 
	C1295.072266,185.564240 1295.072266,259.653168 1295.072266,333.787109 
	C1374.316772,333.787109 1452.852173,333.787109 1532.187988,333.787109 
	C1517.970581,266.206482 1503.721313,199.336746 1483.934692,133.964752 
	C1453.751099,126.067909 1423.913940,121.170387 1392.247192,116.335159 
M1104.845825,1708.403687 
	C1162.308716,1721.423096 1220.367432,1728.993042 1279.719238,1728.644165 
	C1279.719238,1653.421875 1279.719238,1579.353516 1279.719238,1504.956787 
	C1200.785400,1504.956787 1122.422607,1504.956787 1042.813843,1504.956787 
	C1056.928711,1572.707886 1071.340088,1639.489502 1090.980347,1704.940186 
	C1095.536377,1706.095825 1099.380371,1707.071045 1104.845825,1708.403687 
M1958.222778,1373.153931 
	C1989.767822,1326.462402 2016.276123,1277.117798 2037.704224,1224.260498 
	C1975.737061,1224.260498 1914.937744,1224.260498 1853.807983,1224.260498 
	C1820.303711,1314.370361 1781.115356,1401.668701 1741.247681,1489.784058 
	C1745.440308,1489.999146 1748.312988,1490.272095 1751.185913,1490.274658 
	C1785.165527,1490.304321 1819.147217,1490.106445 1853.123169,1490.461060 
	C1859.469849,1490.527222 1863.604004,1488.337769 1867.804077,1483.992188 
	C1900.727661,1449.927124 1930.622314,1413.410522 1958.222778,1373.153931 
M1792.168945,430.813049 
	C1794.176392,435.383057 1796.128296,439.978363 1798.199463,444.519287 
	C1822.379272,497.530914 1844.710815,551.290161 1863.767944,606.377014 
	C1867.004395,615.732544 1867.033447,615.777100 1877.246216,615.781189 
	C1927.559570,615.801453 1977.873047,615.798645 2028.186401,615.768677 
	C2031.063721,615.766968 2033.940674,615.452637 2038.216431,615.201843 
	C2032.646729,602.400513 2027.780029,590.484192 2022.340210,578.835510 
	C1996.036621,522.511169 1964.348145,469.401855 1925.271118,421.002594 
	C1906.690552,397.989532 1886.453735,376.315216 1867.020386,353.988068 
	C1863.548340,349.999176 1859.702881,348.024567 1854.073242,348.075806 
	C1823.088013,348.357971 1792.098999,348.194580 1761.111328,348.247620 
	C1758.971191,348.251282 1756.831787,348.771179 1753.675171,349.183990 
	C1766.620728,376.597870 1779.095581,403.014771 1792.168945,430.813049 
M577.001221,1223.877197 
	C570.674805,1223.877197 564.347839,1223.827271 558.022034,1223.891113 
	C551.573547,1223.956177 545.126160,1224.133179 538.025146,1224.274048 
	C538.715332,1226.907104 538.958496,1228.174561 539.382568,1229.378540 
	C540.155151,1231.571777 540.967896,1233.755859 541.880249,1235.894165 
	C558.754150,1275.440796 578.641357,1313.374512 601.528442,1349.809570 
	C631.904358,1398.166138 667.280884,1442.498413 706.633545,1483.785278 
	C711.170105,1488.544678 715.875916,1490.326172 722.370361,1490.252808 
	C749.670654,1489.944702 776.976440,1490.139282 804.280151,1490.097168 
	C807.098267,1490.092896 809.915833,1489.738647 813.972717,1489.462402 
	C777.520996,1400.959229 741.468506,1313.510498 710.967468,1223.876953 
	C666.203430,1223.876953 622.601929,1223.876953 577.001221,1223.877197 
M792.905640,373.821838 
	C795.813416,365.532684 801.356445,358.192444 802.582214,348.352936 
	C798.897217,348.352936 795.957458,348.352905 793.017700,348.352905 
	C769.703186,348.352905 746.385254,348.573853 723.076355,348.210999 
	C716.542297,348.109283 711.940552,350.048218 707.406555,354.743622 
	C675.202881,388.093628 645.802673,423.722656 619.495056,461.884277 
	C587.844971,507.795624 561.513977,556.623962 539.967041,608.039490 
	C539.046387,610.236267 538.706726,612.676453 538.048401,615.186340 
	C592.391174,615.186340 645.611389,615.186340 699.268555,615.186340 
	C725.243469,533.038635 757.473083,453.618073 792.905640,373.821838 
M869.752747,240.729660 
	C855.500854,271.366577 841.248901,302.003479 826.492065,333.725769 
	C894.246338,333.725769 960.291260,333.725769 1026.771362,333.725769 
	C1041.011719,269.181580 1055.152344,205.089615 1069.441772,140.323074 
	C1067.352173,140.487579 1066.043579,140.372147 1064.868530,140.714447 
	C1007.179138,157.520996 952.020569,180.370117 899.002441,208.711090 
	C885.462036,215.949158 874.515320,224.082520 869.752747,240.729660 
M945.362610,1653.732300 
	C988.304993,1674.371338 1061.485840,1699.994629 1072.356812,1698.642700 
	C1057.194824,1634.147461 1042.010498,1569.557129 1026.790405,1504.814697 
	C963.445740,1504.814697 900.316711,1504.814697 836.200745,1504.814697 
	C837.553955,1508.360718 838.601562,1511.055420 839.612732,1513.763672 
	C851.483398,1545.558105 863.697266,1577.232178 874.930298,1609.250366 
	C877.261169,1615.894287 880.395691,1620.197754 886.329590,1623.238892 
	C905.593506,1633.111572 924.789856,1643.116089 945.362610,1653.732300 
M1686.411255,248.625641 
	C1679.661865,235.246414 1672.702271,221.967117 1666.270264,208.436905 
	C1663.823120,203.288956 1660.446289,199.901596 1655.291260,197.634613 
	C1646.461182,193.751404 1637.808350,189.463272 1629.101685,185.302231 
	C1593.000122,168.048767 1555.541992,154.351517 1517.290894,142.760010 
	C1512.696899,141.367874 1507.894287,140.664322 1502.459961,139.483292 
	C1517.836670,204.977371 1532.889282,269.090820 1548.051758,333.672577 
	C1550.377808,333.811188 1552.994263,334.109985 1555.609619,334.101990 
	C1612.542480,333.928070 1669.475098,333.720703 1726.407715,333.497498 
	C1726.678955,333.496429 1727.009033,333.229218 1727.203003,332.996063 
	C1727.407104,332.750793 1727.480469,332.396790 1728.252319,330.582672 
	C1714.865479,304.332581 1700.994873,277.133911 1686.411255,248.625641 
M1709.672485,1524.513550 
	C1712.372070,1518.185059 1715.071655,1511.856445 1718.073364,1504.819580 
	C1660.913086,1504.819580 1604.829712,1504.819580 1548.206787,1504.819580 
	C1541.124878,1537.267090 1534.053101,1569.369385 1527.123047,1601.502441 
	C1520.176636,1633.710815 1512.264160,1665.723145 1505.794678,1698.289062 
	C1507.946899,1698.289062 1508.652222,1698.439819 1509.267334,1698.267700 
	C1561.649170,1683.614380 1611.845703,1663.462036 1660.128784,1638.452026 
	C1663.733765,1636.584717 1665.237915,1633.850220 1666.673096,1630.273071 
	C1680.654541,1595.421631 1694.860107,1560.660156 1709.672485,1524.513550 
M1807.197266,1540.196533 
	C1820.009399,1528.967651 1833.885376,1518.854736 1846.093994,1504.200317 
	C1841.608032,1504.200317 1839.046631,1504.200317 1836.485352,1504.200317 
	C1805.856323,1504.200195 1775.223755,1504.451660 1744.600830,1504.018555 
	C1737.194092,1503.913818 1733.191406,1506.122925 1730.323730,1512.996826 
	C1716.627441,1545.827759 1702.481201,1578.470703 1688.619263,1611.233154 
	C1687.133789,1614.744263 1686.455078,1618.596558 1684.693604,1624.776123 
	C1690.077148,1621.947876 1693.240479,1620.431763 1696.259644,1618.668457 
	C1701.714600,1615.482178 1707.087280,1612.154541 1712.487793,1608.875244 
	C1745.525146,1588.813721 1776.506226,1565.905762 1807.197266,1540.196533 
M1743.177368,328.297607 
	C1744.647217,333.275696 1748.076782,334.437164 1753.030518,334.402863 
	C1781.968262,334.202454 1810.908081,334.321533 1839.847168,334.257904 
	C1841.493408,334.254303 1843.138062,333.590179 1845.332275,333.114471 
	C1788.658325,277.675873 1709.389771,225.185699 1686.539429,216.396240 
	C1705.369629,253.654877 1723.882812,290.286163 1743.177368,328.297607 
M774.825745,1546.211792 
	C801.276733,1567.167603 827.999634,1587.737427 857.634338,1605.445190 
	C854.987732,1590.674072 825.221863,1513.980225 819.026001,1505.068481 
	C789.302979,1505.068481 759.895264,1505.068481 727.892883,1505.068481 
	C744.385986,1519.562988 759.047607,1532.447998 774.825745,1546.211792 
z"/>
<path fill="#90BFD3" opacity="1.000000" stroke="none" 
	d="
M1534.000000,926.211304 
	C1557.647949,926.302368 1580.295776,926.387085 1602.943481,926.517761 
	C1603.530762,926.521240 1604.115112,927.027466 1604.700439,927.300171 
	C1609.956055,951.795044 1598.606812,1130.538208 1585.351562,1208.025879 
	C1578.612183,1210.172852 1309.143433,1210.889160 1294.903809,1208.575562 
	C1293.337158,1190.421753 1294.460083,1171.896362 1294.257202,1153.429565 
	C1294.048584,1134.441895 1294.210938,1115.450195 1294.210938,1096.460205 
	C1294.210938,1077.803467 1294.210938,1059.146606 1294.210938,1040.489868 
	C1294.210938,1021.499939 1294.210938,1002.510010 1294.210938,983.520081 
	C1294.210938,964.962219 1294.210938,946.404358 1294.210938,929.243958 
	C1295.813354,927.641907 1296.021729,927.366455 1296.292236,927.182007 
	C1296.559692,926.999695 1296.889404,926.795349 1297.192139,926.794556 
	C1375.794800,926.588989 1454.397339,926.400269 1534.000000,926.211304 
z"/>
<path fill="#12925D" opacity="1.000000" stroke="none" 
	d="
M1261.898438,1209.642334 
	C1171.714233,1209.642212 1082.517578,1209.642212 992.508301,1209.642212 
	C980.172180,1115.527100 969.855835,1022.168640 969.234314,928.155518 
	C976.894592,925.957153 1263.110474,925.247620 1279.648682,927.253540 
	C1279.648682,1020.923218 1279.648682,1114.670410 1279.648682,1209.642334 
	C1273.997437,1209.642334 1268.441650,1209.642334 1261.898438,1209.642334 
z"/>
<path fill="#8FBFD3" opacity="1.000000" stroke="none" 
	d="
M1034.000122,629.879089 
	C1116.196899,629.878967 1197.393677,629.878967 1278.338989,629.878967 
	C1280.545166,638.268311 1280.873413,900.645691 1278.814453,911.474121 
	C1175.878296,911.474121 1072.817749,911.474121 969.383423,911.474121 
	C968.613831,817.203369 976.780151,723.893677 989.305420,629.879211 
	C1004.480469,629.879211 1018.740356,629.879211 1034.000122,629.879089 
z"/>
<path fill="#12925C" opacity="1.000000" stroke="none" 
	d="
M1306.239136,912.292358 
	C1302.005249,912.292419 1298.738647,912.292419 1294.932373,912.292419 
	C1294.932373,817.916809 1294.932373,724.436462 1294.932373,630.331421 
	C1390.696167,630.331421 1486.179199,630.331421 1582.587524,630.331421 
	C1594.984375,723.632751 1604.869995,817.028625 1606.034424,912.292358 
	C1505.662354,912.292358 1406.434448,912.292358 1306.239136,912.292358 
z"/>
<path fill="#11925C" opacity="1.000000" stroke="none" 
	d="
M700.547363,660.723999 
	C703.728699,650.099731 706.687744,640.259338 709.725159,630.157959 
	C797.768433,630.157959 885.306396,630.157959 973.428284,630.157959 
	C968.870789,677.047913 963.450500,723.748291 960.026550,770.594666 
	C956.611511,817.319397 955.197327,864.190308 952.873291,911.663696 
	C856.829041,911.663696 760.025452,911.663696 662.378845,911.663696 
	C662.378845,901.613831 661.586243,891.352356 662.526184,881.252075 
	C665.451172,849.819580 668.017029,818.298584 672.612976,787.090332 
	C678.573425,746.617493 687.719910,706.715759 698.897461,667.321716 
	C699.441772,665.403198 699.852295,663.446716 700.547363,660.723999 
z"/>
<path fill="#90BFD3" opacity="1.000000" stroke="none" 
	d="
M937.856445,926.211792 
	C943.428711,926.211975 948.025024,926.211975 952.814880,926.211975 
	C953.404968,928.275696 954.011597,929.482056 954.061829,930.711121 
	C954.767761,947.996582 955.080139,965.304199 956.119995,982.568359 
	C957.738098,1009.431885 959.746826,1036.273193 961.766663,1063.110596 
	C963.063354,1080.339844 964.390320,1097.575806 966.224426,1114.753174 
	C968.304077,1134.229980 971.007019,1153.639648 973.357788,1173.088379 
	C974.746460,1184.576294 975.977661,1196.083374 977.427490,1208.888062 
	C973.178955,1209.211670 969.393677,1209.748535 965.607971,1209.751343 
	C898.960388,1209.802490 832.312866,1209.788452 765.665283,1209.788330 
	C753.668701,1209.788330 741.665161,1209.546631 729.678528,1209.891724 
	C723.839722,1210.059814 720.749146,1208.372803 718.825439,1202.400757 
	C700.668213,1146.031616 684.219177,1089.246948 673.485413,1030.900146 
	C668.789307,1005.372742 665.128479,979.789673 663.531250,953.872742 
	C662.985107,945.010254 661.041565,936.237122 662.885193,926.211548 
	C754.454651,926.211548 845.667542,926.211548 937.856445,926.211792 
z"/>
<path fill="#8FBFD3" opacity="1.000000" stroke="none" 
	d="
M1619.586670,858.670349 
	C1619.075439,853.775269 1618.468506,849.830444 1618.173096,845.862305 
	C1616.151978,818.705200 1614.380005,791.528198 1612.162354,764.387390 
	C1610.296753,741.554871 1608.199585,718.734131 1605.713379,695.961853 
	C1603.697021,677.493774 1600.891846,659.112793 1598.583618,640.674744 
	C1598.187500,637.510376 1598.527588,634.253784 1598.527588,630.472717 
	C1601.955078,630.252991 1604.872681,629.903687 1607.790283,629.902588 
	C1687.385498,629.872925 1766.980713,629.872070 1846.575928,629.887512 
	C1856.413574,629.889404 1856.555298,629.899048 1859.338989,638.588562 
	C1876.083618,690.858643 1890.412231,743.753052 1898.114868,798.186096 
	C1901.599487,822.811584 1903.797852,847.625427 1906.266846,872.385010 
	C1907.287598,882.621521 1907.552612,892.937012 1908.012085,903.223267 
	C1908.126709,905.789917 1907.662720,908.382324 1907.423096,911.503784 
	C1811.784302,911.503784 1716.715454,911.503784 1620.428101,911.503784 
	C1620.160645,894.000244 1619.897949,876.804993 1619.586670,858.670349 
z"/>
<path fill="#12935D" opacity="1.000000" stroke="none" 
	d="
M1618.323853,1012.656250 
	C1618.978394,991.419189 1619.686035,971.125488 1620.231689,950.827393 
	C1620.436646,943.201355 1620.264893,935.565125 1620.264893,928.136047 
	C1628.096802,925.917603 1885.852173,925.038330 1907.051392,927.040894 
	C1907.290649,929.404114 1907.976929,931.964172 1907.732788,934.432251 
	C1905.541016,956.589905 1904.029541,978.858276 1900.721802,1000.854126 
	C1890.434814,1069.260132 1869.891235,1134.975708 1846.991333,1200.019775 
	C1846.218018,1202.216187 1845.308350,1204.367798 1844.383667,1206.506348 
	C1844.000122,1207.393311 1843.409302,1208.190796 1842.768677,1209.272095 
	C1762.554565,1209.272095 1682.302002,1209.272095 1600.800049,1209.272095 
	C1602.149170,1197.401489 1603.508179,1186.022705 1604.723755,1174.628540 
	C1607.263672,1150.822876 1610.008545,1127.034424 1612.145508,1103.191895 
	C1614.372070,1078.349609 1616.019043,1053.454834 1617.831787,1028.576538 
	C1618.194458,1023.598328 1618.162476,1018.591492 1618.323853,1012.656250 
z"/>
<path fill="#12935D" opacity="1.000000" stroke="none" 
	d="
M1280.289307,579.997925 
	C1280.289307,592.222717 1280.289307,603.448120 1280.289307,615.150024 
	C1183.785889,615.150024 1088.350708,615.150024 991.504578,615.150024 
	C1003.742004,525.630493 1020.444153,437.382172 1038.807983,348.921539 
	C1118.968628,348.921539 1198.772705,348.921539 1278.690796,348.921539 
	C1278.838623,349.039185 1279.129761,349.218781 1279.350708,349.462128 
	C1279.559570,349.692230 1279.841064,349.988953 1279.841675,350.256897 
	C1280.005127,426.504120 1280.146851,502.751404 1280.289307,579.997925 
z"/>
<path fill="#12925C" opacity="1.000000" stroke="none" 
	d="
M1539.687378,1473.535645 
	C1538.356323,1479.497314 1537.152832,1484.618652 1535.900635,1489.946655 
	C1455.496826,1489.946655 1375.626831,1489.946655 1295.061646,1489.946655 
	C1295.061646,1401.379028 1295.061646,1313.027710 1295.061646,1224.191162 
	C1391.210327,1224.191162 1486.984497,1224.191162 1583.489258,1224.191162 
	C1571.983032,1307.881958 1556.604126,1390.410645 1539.687378,1473.535645 
z"/>
<path fill="#90BFD3" opacity="1.000000" stroke="none" 
	d="
M1294.210693,556.000000 
	C1294.210938,486.731110 1294.210938,418.462219 1294.210938,349.504456 
	C1297.642456,348.981537 1300.156494,348.265625 1302.671021,348.263580 
	C1377.336304,348.203003 1452.001587,348.194946 1526.666870,348.238556 
	C1534.746338,348.243286 1535.061890,348.349854 1536.782593,357.043518 
	C1542.007446,383.442047 1547.270386,409.839478 1551.954956,436.337036 
	C1558.778442,474.932922 1565.229492,513.596069 1571.600220,552.269897 
	C1574.623413,570.622253 1577.127441,589.060852 1579.769897,607.474182 
	C1580.092407,609.721313 1579.813843,612.054626 1579.813843,615.068970 
	C1484.858276,615.068970 1390.412354,615.068970 1294.987549,615.068970 
	C1293.390625,595.401123 1294.598511,576.176208 1294.210693,556.000000 
z"/>
<path fill="#8FBFD3" opacity="1.000000" stroke="none" 
	d="
M1114.000000,1490.120972 
	C1089.051025,1490.121094 1065.102051,1490.121094 1041.594482,1490.121094 
	C1034.480347,1476.575562 996.799133,1259.204956 995.321899,1224.438110 
	C1089.805908,1224.438110 1184.266235,1224.438110 1279.423706,1224.438110 
	C1279.423706,1312.759766 1279.423706,1400.561157 1279.423706,1488.340820 
	C1279.164551,1488.599854 1278.943848,1488.853271 1278.688965,1489.065796 
	C1278.442749,1489.271118 1278.161621,1489.592285 1277.894653,1489.593262 
	C1223.596558,1489.784790 1169.298218,1489.952515 1114.000000,1490.120972 
z"/>
<path fill="#90BFD3" opacity="1.000000" stroke="none" 
	d="
M1010.202271,416.215057 
	C1002.036194,462.859741 993.843811,508.632385 985.955811,554.457397 
	C982.914490,572.125916 980.544861,589.910522 977.910095,607.648315 
	C976.859558,614.720459 976.119324,615.477173 969.206543,615.775757 
	C967.875916,615.833191 966.540771,615.788940 965.207703,615.788940 
	C885.888794,615.789185 806.569824,615.789185 727.250916,615.789185 
	C723.705200,615.789185 720.159424,615.789185 715.460449,615.789185 
	C716.276917,611.775513 716.557007,609.220215 717.320496,606.818604 
	C734.272766,553.494690 754.130615,501.246063 775.998657,449.765076 
	C789.398560,418.219360 803.400818,386.929626 816.828247,355.395355 
	C818.930054,350.459229 821.218262,348.082367 826.933777,348.098877 
	C890.588379,348.282593 954.243713,348.212646 1017.898804,348.242096 
	C1019.515015,348.242859 1021.131042,348.596649 1023.856140,348.915558 
	C1019.274109,371.371399 1014.785828,393.367676 1010.202271,416.215057 
z"/>
<path fill="#12935D" opacity="1.000000" stroke="none" 
	d="
M1676.000000,348.355042 
	C1694.324463,348.355164 1711.652344,348.547394 1728.971313,348.240204 
	C1734.280396,348.146057 1737.392578,349.541656 1739.848145,354.579529 
	C1779.806885,436.556152 1817.673340,519.426086 1848.084473,605.516602 
	C1849.059570,608.277527 1849.757202,611.136475 1850.588623,613.964478 
	C1842.210327,616.146179 1622.867920,617.057007 1596.750854,615.149963 
	C1581.719971,526.609131 1566.681152,438.022034 1551.458984,348.355011 
	C1592.587646,348.355011 1633.793823,348.355011 1676.000000,348.355042 
z"/>
<path fill="#12925C" opacity="1.000000" stroke="none" 
	d="
M764.001465,1223.707764 
	C836.244263,1223.707764 907.487671,1223.707764 978.236267,1223.707764 
	C993.333008,1312.670166 1008.276367,1400.728882 1023.234619,1488.875366 
	C1016.835205,1490.764893 853.259521,1491.678345 830.811829,1489.743652 
	C818.999146,1470.655273 731.945190,1247.226074 727.597168,1224.431641 
	C739.418457,1222.830688 751.247498,1224.134766 764.001465,1223.707764 
z"/>
<path fill="#8FBFD3" opacity="1.000000" stroke="none" 
	d="
M1666.000000,1490.121826 
	C1627.733154,1490.121948 1590.466309,1490.121948 1551.572632,1490.121948 
	C1557.379761,1459.736572 1563.066650,1430.590332 1568.496704,1401.396362 
	C1573.903198,1372.329102 1579.277832,1343.252441 1584.250488,1314.108887 
	C1589.276978,1284.649658 1593.793335,1255.103638 1598.525635,1225.642334 
	C1605.413330,1223.504761 1824.196899,1222.821655 1837.879639,1225.036133 
	C1804.341797,1315.027100 1764.868042,1402.229736 1725.057251,1490.121704 
	C1705.568604,1490.121704 1686.284302,1490.121704 1666.000000,1490.121826 
z"/>
<path fill="#90BFD3" opacity="1.000000" stroke="none" 
	d="
M2071.424805,1123.253540 
	C2063.460449,1152.932495 2054.984863,1181.571777 2043.476685,1209.358643 
	C1982.306152,1209.358643 1921.750854,1209.358643 1859.887573,1209.358643 
	C1860.742798,1205.934448 1861.264282,1203.167236 1862.123779,1200.509399 
	C1871.028320,1172.975464 1880.461548,1145.602051 1888.817627,1117.903564 
	C1900.824951,1078.102539 1910.286255,1037.687012 1916.201782,996.465942 
	C1919.274292,975.055481 1922.067627,953.661621 1922.171021,931.992737 
	C1922.177246,930.708130 1922.660156,929.425781 1923.081177,927.356628 
	C1925.540771,926.982178 1928.059570,926.267151 1930.579224,926.263977 
	C1983.227905,926.198120 2035.876831,926.182983 2088.525635,926.240479 
	C2097.600098,926.250366 2097.568115,926.568176 2096.736572,936.156921 
	C2096.248047,941.788208 2096.297607,947.471497 2096.229248,953.132874 
	C2095.891357,981.111084 2092.460693,1008.782471 2088.666992,1036.464722 
	C2084.688721,1065.491333 2078.550537,1094.039917 2071.424805,1123.253540 
z"/>
<path fill="#13935D" opacity="1.000000" stroke="none" 
	d="
M480.178406,981.595154 
	C479.299988,963.077881 478.436981,945.502991 477.585815,928.169678 
	C485.935455,925.911560 624.008057,925.080994 647.157959,926.965942 
	C650.338196,1023.898010 675.952759,1116.509155 705.757385,1209.084595 
	C646.994202,1209.084595 589.543396,1209.084595 531.313538,1209.084595 
	C503.051727,1136.150391 486.572479,1060.501831 480.178406,981.595154 
z"/>
<path fill="#12925D" opacity="1.000000" stroke="none" 
	d="
M1901.544067,736.459106 
	C1892.043457,700.680420 1882.681885,665.725769 1873.195312,630.304321 
	C1929.613403,630.304321 1986.410645,630.304321 2043.975708,630.304321 
	C2078.178711,720.547852 2096.272461,813.956543 2096.814697,912.284912 
	C2038.786743,912.301697 1981.320068,912.288452 1922.596069,912.294189 
	C1922.428955,852.853149 1914.299316,794.783203 1901.544067,736.459106 
z"/>
<path fill="#8FBFD3" opacity="1.000000" stroke="none" 
	d="
M664.028564,751.926147 
	C660.618835,773.750610 657.035889,794.684265 654.062012,815.704163 
	C649.775024,846.005920 647.606140,876.483276 647.759766,907.108093 
	C647.766052,908.365540 647.299744,909.625366 646.940308,911.463806 
	C590.910156,911.463806 535.161011,911.463806 477.932373,911.463806 
	C477.952362,863.281982 483.206573,816.004883 491.839142,769.011292 
	C500.508942,721.815186 513.464294,675.847473 530.951965,630.523193 
	C585.000671,630.523193 639.041382,630.523193 692.825562,630.523193 
	C683.171326,671.077026 673.649353,711.075500 664.028564,751.926147 
z"/>
<path fill="#90BFD3" opacity="1.000000" stroke="none" 
	d="
M1372.648682,1724.528198 
	C1360.185181,1725.766235 1348.637085,1727.112549 1337.050537,1727.873779 
	C1325.109497,1728.658325 1313.120483,1728.699463 1301.174194,1729.424072 
	C1296.491699,1729.708130 1294.182495,1728.241333 1294.232910,1723.476929 
	C1294.254150,1721.478638 1294.210938,1719.479980 1294.210938,1717.481445 
	C1294.209473,1650.529785 1294.209839,1583.578003 1294.209839,1516.626343 
	C1294.209839,1513.060303 1294.209717,1509.494263 1294.209717,1506.331787 
	C1302.509033,1503.828491 1516.029297,1503.073975 1531.627808,1505.236084 
	C1531.627808,1507.587891 1532.077148,1510.176025 1531.561035,1512.554565 
	C1522.264404,1555.399170 1512.898071,1598.228882 1503.442383,1641.038696 
	C1498.929810,1661.468994 1494.199829,1681.851440 1489.275146,1703.546875 
	C1451.605835,1713.785645 1412.895386,1720.751343 1372.648682,1724.528198 
z"/>
<path fill="#8FBFD3" opacity="1.000000" stroke="none" 
	d="
M1069.148682,209.155945 
	C1074.334106,185.988800 1079.296753,163.623795 1084.121338,141.229034 
	C1085.064941,136.848923 1087.042969,134.434265 1091.793335,133.519638 
	C1114.272339,129.191498 1136.584717,123.936066 1159.138306,120.073502 
	C1185.312378,115.590889 1211.680420,112.332870 1238.301514,111.626190 
	C1248.919312,111.344322 1259.519653,110.441368 1270.134644,109.976982 
	C1273.031616,109.850250 1275.953491,110.288902 1279.471191,110.505470 
	C1279.471191,184.835358 1279.471191,258.596741 1279.471191,332.339417 
	C1272.566895,334.515289 1058.260010,335.301331 1041.968872,333.025604 
	C1050.952148,291.937073 1059.914917,250.942368 1069.148682,209.155945 
z"/>
<path fill="#12925D" opacity="1.000000" stroke="none" 
	d="
M1393.124512,116.495544 
	C1423.913940,121.170387 1453.751099,126.067909 1483.934692,133.964752 
	C1503.721313,199.336746 1517.970581,266.206482 1532.187988,333.787109 
	C1452.852173,333.787109 1374.316772,333.787109 1295.072266,333.787109 
	C1295.072266,259.653168 1295.072266,185.564240 1295.072266,110.439720 
	C1305.312988,110.439720 1315.543701,109.844406 1325.681519,110.561630 
	C1347.895020,112.133179 1370.061523,114.370010 1393.124512,116.495544 
z"/>
<path fill="#12925D" opacity="1.000000" stroke="none" 
	d="
M1104.035156,1708.224854 
	C1099.380371,1707.071045 1095.536377,1706.095825 1090.980347,1704.940186 
	C1071.340088,1639.489502 1056.928711,1572.707886 1042.813843,1504.956787 
	C1122.422607,1504.956787 1200.785400,1504.956787 1279.719238,1504.956787 
	C1279.719238,1579.353516 1279.719238,1653.421875 1279.719238,1728.644165 
	C1220.367432,1728.993042 1162.308716,1721.423096 1104.035156,1708.224854 
z"/>
<path fill="#12925D" opacity="1.000000" stroke="none" 
	d="
M1957.821289,1373.752075 
	C1930.622314,1413.410522 1900.727661,1449.927124 1867.804077,1483.992188 
	C1863.604004,1488.337769 1859.469849,1490.527222 1853.123169,1490.461060 
	C1819.147217,1490.106445 1785.165527,1490.304321 1751.185913,1490.274658 
	C1748.312988,1490.272095 1745.440308,1489.999146 1741.247681,1489.784058 
	C1781.115356,1401.668701 1820.303711,1314.370361 1853.807983,1224.260498 
	C1914.937744,1224.260498 1975.737061,1224.260498 2037.704224,1224.260498 
	C2016.276123,1277.117798 1989.767822,1326.462402 1957.821289,1373.752075 
z"/>
<path fill="#90C0D3" opacity="1.000000" stroke="none" 
	d="
M1791.869629,430.122375 
	C1779.095581,403.014771 1766.620728,376.597870 1753.675171,349.183990 
	C1756.831787,348.771179 1758.971191,348.251282 1761.111328,348.247620 
	C1792.098999,348.194580 1823.088013,348.357971 1854.073242,348.075806 
	C1859.702881,348.024567 1863.548340,349.999176 1867.020386,353.988068 
	C1886.453735,376.315216 1906.690552,397.989532 1925.271118,421.002594 
	C1964.348145,469.401855 1996.036621,522.511169 2022.340210,578.835510 
	C2027.780029,590.484192 2032.646729,602.400513 2038.216431,615.201843 
	C2033.940674,615.452637 2031.063721,615.766968 2028.186401,615.768677 
	C1977.873047,615.798645 1927.559570,615.801453 1877.246216,615.781189 
	C1867.033447,615.777100 1867.004395,615.732544 1863.767944,606.377014 
	C1844.710815,551.290161 1822.379272,497.530914 1798.199463,444.519287 
	C1796.128296,439.978363 1794.176392,435.383057 1791.869629,430.122375 
z"/>
<path fill="#90BFD3" opacity="1.000000" stroke="none" 
	d="
M578.000854,1223.877075 
	C622.601929,1223.876953 666.203430,1223.876953 710.967468,1223.876953 
	C741.468506,1313.510498 777.520996,1400.959229 813.972717,1489.462402 
	C809.915833,1489.738647 807.098267,1490.092896 804.280151,1490.097168 
	C776.976440,1490.139282 749.670654,1489.944702 722.370361,1490.252808 
	C715.875916,1490.326172 711.170105,1488.544678 706.633545,1483.785278 
	C667.280884,1442.498413 631.904358,1398.166138 601.528442,1349.809570 
	C578.641357,1313.374512 558.754150,1275.440796 541.880249,1235.894165 
	C540.967896,1233.755859 540.155151,1231.571777 539.382568,1229.378540 
	C538.958496,1228.174561 538.715332,1226.907104 538.025146,1224.274048 
	C545.126160,1224.133179 551.573547,1223.956177 558.022034,1223.891113 
	C564.347839,1223.827271 570.674805,1223.877197 578.000854,1223.877075 
z"/>
<path fill="#13935D" opacity="1.000000" stroke="none" 
	d="
M792.551636,374.495880 
	C757.473083,453.618073 725.243469,533.038635 699.268555,615.186340 
	C645.611389,615.186340 592.391174,615.186340 538.048401,615.186340 
	C538.706726,612.676453 539.046387,610.236267 539.967041,608.039490 
	C561.513977,556.623962 587.844971,507.795624 619.495056,461.884277 
	C645.802673,423.722656 675.202881,388.093628 707.406555,354.743622 
	C711.940552,350.048218 716.542297,348.109283 723.076355,348.210999 
	C746.385254,348.573853 769.703186,348.352905 793.017700,348.352905 
	C795.957458,348.352905 798.897217,348.352936 802.582214,348.352936 
	C801.356445,358.192444 795.813416,365.532684 792.551636,374.495880 
z"/>
<path fill="#12925D" opacity="1.000000" stroke="none" 
	d="
M870.034302,240.034515 
	C874.515320,224.082520 885.462036,215.949158 899.002441,208.711090 
	C952.020569,180.370117 1007.179138,157.520996 1064.868530,140.714447 
	C1066.043579,140.372147 1067.352173,140.487579 1069.441772,140.323074 
	C1055.152344,205.089615 1041.011719,269.181580 1026.771362,333.725769 
	C960.291260,333.725769 894.246338,333.725769 826.492065,333.725769 
	C841.248901,302.003479 855.500854,271.366577 870.034302,240.034515 
z"/>
<path fill="#90C0D3" opacity="1.000000" stroke="none" 
	d="
M944.687439,1653.401123 
	C924.789856,1643.116089 905.593506,1633.111572 886.329590,1623.238892 
	C880.395691,1620.197754 877.261169,1615.894287 874.930298,1609.250366 
	C863.697266,1577.232178 851.483398,1545.558105 839.612732,1513.763672 
	C838.601562,1511.055420 837.553955,1508.360718 836.200745,1504.814697 
	C900.316711,1504.814697 963.445740,1504.814697 1026.790405,1504.814697 
	C1042.010498,1569.557129 1057.194824,1634.147461 1072.356812,1698.642700 
	C1061.485840,1699.994629 988.304993,1674.371338 944.687439,1653.401123 
z"/>
<path fill="#90BFD3" opacity="1.000000" stroke="none" 
	d="
M1686.767822,249.280457 
	C1700.994873,277.133911 1714.865479,304.332581 1728.252319,330.582672 
	C1727.480469,332.396790 1727.407104,332.750793 1727.203003,332.996063 
	C1727.009033,333.229218 1726.678955,333.496429 1726.407715,333.497498 
	C1669.475098,333.720703 1612.542480,333.928070 1555.609619,334.101990 
	C1552.994263,334.109985 1550.377808,333.811188 1548.051758,333.672577 
	C1532.889282,269.090820 1517.836670,204.977371 1502.459961,139.483292 
	C1507.894287,140.664322 1512.696899,141.367874 1517.290894,142.760010 
	C1555.541992,154.351517 1593.000122,168.048767 1629.101685,185.302231 
	C1637.808350,189.463272 1646.461182,193.751404 1655.291260,197.634613 
	C1660.446289,199.901596 1663.823120,203.288956 1666.270264,208.436905 
	C1672.702271,221.967117 1679.661865,235.246414 1686.767822,249.280457 
z"/>
<path fill="#13935E" opacity="1.000000" stroke="none" 
	d="
M1709.337158,1525.193359 
	C1694.860107,1560.660156 1680.654541,1595.421631 1666.673096,1630.273071 
	C1665.237915,1633.850220 1663.733765,1636.584717 1660.128784,1638.452026 
	C1611.845703,1663.462036 1561.649170,1683.614380 1509.267334,1698.267700 
	C1508.652222,1698.439819 1507.946899,1698.289062 1505.794678,1698.289062 
	C1512.264160,1665.723145 1520.176636,1633.710815 1527.123047,1601.502441 
	C1534.053101,1569.369385 1541.124878,1537.267090 1548.206787,1504.819580 
	C1604.829712,1504.819580 1660.913086,1504.819580 1718.073364,1504.819580 
	C1715.071655,1511.856445 1712.372070,1518.185059 1709.337158,1525.193359 
z"/>
<path fill="#91C0D4" opacity="1.000000" stroke="none" 
	d="
M1806.686035,1540.689087 
	C1776.506226,1565.905762 1745.525146,1588.813721 1712.487793,1608.875244 
	C1707.087280,1612.154541 1701.714600,1615.482178 1696.259644,1618.668457 
	C1693.240479,1620.431763 1690.077148,1621.947876 1684.693604,1624.776123 
	C1686.455078,1618.596558 1687.133789,1614.744263 1688.619263,1611.233154 
	C1702.481201,1578.470703 1716.627441,1545.827759 1730.323730,1512.996826 
	C1733.191406,1506.122925 1737.194092,1503.913818 1744.600830,1504.018555 
	C1775.223755,1504.451660 1805.856323,1504.200195 1836.485352,1504.200317 
	C1839.046631,1504.200317 1841.608032,1504.200317 1846.093994,1504.200317 
	C1833.885376,1518.854736 1820.009399,1528.967651 1806.686035,1540.689087 
z"/>
<path fill="#14935E" opacity="1.000000" stroke="none" 
	d="
M1742.786621,327.607544 
	C1723.882812,290.286163 1705.369629,253.654877 1686.539429,216.396240 
	C1709.389771,225.185699 1788.658325,277.675873 1845.332275,333.114471 
	C1843.138062,333.590179 1841.493408,334.254303 1839.847168,334.257904 
	C1810.908081,334.321533 1781.968262,334.202454 1753.030518,334.402863 
	C1748.076782,334.437164 1744.647217,333.275696 1742.786621,327.607544 
z"/>
<path fill="#169460" opacity="1.000000" stroke="none" 
	d="
M774.267517,1545.772461 
	C759.047607,1532.447998 744.385986,1519.562988 727.892883,1505.068481 
	C759.895264,1505.068481 789.302979,1505.068481 819.026001,1505.068481 
	C825.221863,1513.980225 854.987732,1590.674072 857.634338,1605.445190 
	C827.999634,1587.737427 801.276733,1567.167603 774.267517,1545.772461 
z"/>
<path fill="#91C0D4" opacity="1.000000" stroke="none" 
	d="
M853.942871,235.949295 
	C851.406921,243.027542 849.361816,250.330185 846.247314,257.143982 
	C834.654297,282.506287 822.710022,307.708008 810.626099,333.550537 
	C784.480225,333.550537 758.057251,333.550537 731.531311,333.550537 
	C739.657227,318.788208 812.826416,260.205109 853.350464,236.210205 
	C853.991028,235.992538 853.942871,235.949295 853.942871,235.949295 
z"/>
<path fill="#91C0D4" opacity="1.000000" stroke="none" 
	d="
M854.010803,236.017212 
	C854.208496,236.002625 854.386414,235.963348 854.253601,235.936691 
	C853.942871,235.949295 853.991028,235.992538 854.010803,236.017212 
z"/>
</svg>